<?xml version="1.0" standalone="no"?>
<!DOCTYPE svg PUBLIC "-//W3C//DTD SVG 1.1//EN" "http://www.w3.org/Graphics/SVG/1.1/DTD/svg11.dtd" >
<!--
2013-9-30: Created.
-->
<svg>
<metadata>
Created by iconfont
</metadata>
<defs>

<font id="iconfont" horiz-adv-x="1024" >
  <font-face
    font-family="iconfont"
    font-weight="500"
    font-stretch="normal"
    units-per-em="1024"
    ascent="896"
    descent="-128"
  />
    <missing-glyph />
    
    <glyph glyph-name="_wodeyijie" unicode="&#58936;" d="M483.1232-27.8528L118.1696 182.8864V604.3648L483.1232 814.08l364.9536-209.7152v-421.4784zM138.6496 194.7648L483.1232-5.12l344.4736 199.0656V592.4864L483.1232 791.3472 138.6496 592.4864zM241.4592 527.36a10.4448 10.4448 0 0 0-5.12 1.2288l-106.496 61.44a10.4448 10.4448 0 0 0-3.6864 14.1312 10.0352 10.0352 0 0 0 13.9264 3.6864l106.496-61.44a10.24 10.24 0 0 0-5.12-19.0464zM728.8832 527.36a10.24 10.24 0 0 0-5.12 19.0464l106.496 61.44a10.24 10.24 0 0 0 13.9264-3.6864 10.4448 10.4448 0 0 0-4.5056-15.36l-106.496-61.44a11.0592 11.0592 0 0 0-4.3008 0zM837.8368 179.2a11.0592 11.0592 0 0 0-5.12 1.2288l-194.56 112.64a10.4448 10.4448 0 0 0-3.6864 14.1312 10.0352 10.0352 0 0 0 13.9264 3.6864l194.56-112.64a10.24 10.24 0 0 0-5.12-19.0464zM134.9632 179.2a10.24 10.24 0 0 0-5.12 19.0464l188.6208 109.568a10.24 10.24 0 0 0 10.24-17.6128L140.0832 179.2a11.0592 11.0592 0 0 0-5.12 0zM587.9808-76.1856l-10.24 17.8176 17.6128 10.24 10.24-17.8176z m35.4304 20.48l-10.24 17.8176 17.6128 10.24 10.24-17.8176z m35.4304 20.48l-10.24 17.8176 17.8176 10.24 9.4208-18.432z m35.4304 20.48l-10.24 17.8176 17.8176 10.24 10.24-17.8176z m35.4304 20.48l-10.24 17.8176 17.8176 10.24 10.24-17.8176z m35.6352 20.48l-10.24 17.8176 17.6128 10.24 10.24-17.8176z m35.4304 20.48l-10.24 17.8176 17.6128 10.24 11.0592-18.432z m35.4304 20.48l-10.24 17.8176 17.8176 10.24 10.24-17.8176z m35.4304 20.48l-10.24 17.8176 17.8176 10.24 10.24-17.8176z m35.4304 20.48l-10.24 17.8176 17.8176 10.24 10.24-17.8176z m22.9376 39.7312h-20.48v20.48h20.48z m0 40.96h-20.48v20.48h20.48z m0 40.96h-20.48v20.48h20.48z m0 40.96h-20.48v20.48h20.48z m0 40.96h-20.48v20.48h20.48z m0 40.96h-20.48v20.48h20.48z m0 40.96h-20.48v20.48h20.48z m0 40.96h-20.48v20.48h20.48z m0 40.96h-20.48v20.48h20.48z m0 40.96h-20.48v20.48h20.48zM484.1472 582.656a9.8304 9.8304 0 0 0-9.6256 9.8304v204.8a9.8304 9.8304 0 1 0 19.456 0v-204.8a9.8304 9.8304 0 0 0-9.8304-9.8304zM483.1232 199.68a194.56 194.56 0 1 0 194.56 194.56 194.7648 194.7648 0 0 0-194.56-194.56z m0 368.64a174.08 174.08 0 1 1 174.08-174.08 174.2848 174.2848 0 0 1-174.08 174.08zM483.328-27.0336a10.24 10.24 0 0 0-10.24 10.24v122.88a10.4448 10.4448 0 0 0 10.24 10.24 10.24 10.24 0 0 0 10.24-10.24v-122.88a10.24 10.24 0 0 0-10.24-10.24zM483.1232 803.2256m-40.96 0a40.96 40.96 0 1 1 81.92 0 40.96 40.96 0 1 1-81.92 0ZM831.2832 598.4256m-40.96 0a40.96 40.96 0 1 1 81.92 0 40.96 40.96 0 1 1-81.92 0ZM831.2832 188.8256m-40.96 0a40.96 40.96 0 1 1 81.92 0 40.96 40.96 0 1 1-81.92 0ZM483.1232-15.9744m-40.96 0a40.96 40.96 0 1 1 81.92 0 40.96 40.96 0 1 1-81.92 0ZM134.9632 188.8256m-40.96 0a40.96 40.96 0 1 1 81.92 0 40.96 40.96 0 1 1-81.92 0ZM134.9632 598.4256m-40.96 0a40.96 40.96 0 1 1 81.92 0 40.96 40.96 0 1 1-81.92 0ZM496.8448 216.2688c108.544 0 161.792 66.7648 163.84 188.6208h-368.64c15.1552-123.2896 97.0752-188.6208 204.8-188.6208zM401.2032 414.1056h163.84a20.48 20.48 0 1 0 0-40.96h-163.84a20.48 20.48 0 0 0 0 40.96z"  horiz-adv-x="1024" />

    
    <glyph glyph-name="_wodehangcheng" unicode="&#58937;" d="M626.688 556.032c20.48-114.688-10.24-178.176-90.112-194.56-120.832-22.528-96.256-174.08-92.16-174.08 65.536 0 186.368-47.104 266.24 67.584 45.056 65.536 51.2 149.504 14.336 219.136-14.336 20.48-45.056 47.104-98.304 81.92zM540.672-41.984c-6.144 0-10.24 4.096-10.24 10.24 0 4.096 2.048 6.144 4.096 8.192l276.48 159.744c4.096 2.048 10.24 2.048 14.336-4.096 2.048-4.096 2.048-10.24-4.096-14.336l-276.48-159.744s-2.048-2.048-4.096 0z m-86.016 49.152c-2.048 0-4.096 0-4.096 2.048L180.224 162.816c-4.096 2.048-6.144 8.192-4.096 14.336 2.048 4.096 8.192 6.144 14.336 4.096l270.336-155.648c4.096-2.048 6.144-8.192 4.096-14.336-2.048-4.096-6.144-4.096-10.24-4.096z m440.32 155.648c-6.144 0-10.24 4.096-10.24 10.24V576.512l-348.16 200.704c-4.096 2.048-6.144 10.24-4.096 14.336 2.048 4.096 8.192 6.144 14.336 4.096L905.216 588.8v-415.744c0-6.144-4.096-10.24-10.24-10.24zM186.368 254.976c-6.144 0-10.24 4.096-10.24 10.24V586.752l284.672 163.84c4.096 4.096 10.24 2.048 14.336-2.048 4.096-4.096 2.048-10.24-2.048-14.336 0 0-2.048 0-2.048-2.048L196.608 576.512v-311.296c0-6.144-4.096-10.24-10.24-10.24zM540.672 787.456m-40.96 0a40.96 40.96 0 1 1 81.92 0 40.96 40.96 0 1 1-81.92 0ZM888.832 580.608m-40.96 0a40.96 40.96 0 1 1 81.92 0 40.96 40.96 0 1 1-81.92 0ZM888.832 173.056m-40.96 0a40.96 40.96 0 1 1 81.92 0 40.96 40.96 0 1 1-81.92 0ZM540.672-31.744m-40.96 0a40.96 40.96 0 1 1 81.92 0 40.96 40.96 0 1 1-81.92 0ZM192.512 173.056m-40.96 0a40.96 40.96 0 1 1 81.92 0 40.96 40.96 0 1 1-81.92 0ZM192.512 580.608m-40.96 0a40.96 40.96 0 1 1 81.92 0 40.96 40.96 0 1 1-81.92 0ZM630.784 457.728c-10.24-61.44-38.912-92.16-88.064-92.16-38.912 0-61.44-24.576-69.632-75.776 0-6.144-20.48-2.048-20.48 2.048 10.24 61.44 40.96 94.208 90.112 94.208 36.864 0 59.392 24.576 67.584 73.728l20.48-2.048zM540.672 162.816c-118.784 0-215.04 96.256-215.04 215.04s96.256 215.04 215.04 215.04 215.04-96.256 215.04-215.04-96.256-215.04-215.04-215.04z m0 409.6c-106.496 0-194.56-88.064-194.56-194.56s88.064-194.56 194.56-194.56 194.56 88.064 194.56 194.56-86.016 192.512-194.56 194.56zM438.272 386.048h204.8v-20.48h-204.8zM622.592 447.488c-16.384 0-30.72 14.336-30.72 30.72s14.336 30.72 30.72 30.72 30.72-14.336 30.72-30.72-14.336-30.72-30.72-30.72z m0 40.96c-6.144 0-10.24-4.096-10.24-10.24s4.096-10.24 10.24-10.24 10.24 4.096 10.24 10.24-4.096 10.24-10.24 10.24zM458.752 244.736c-16.384 0-30.72 14.336-30.72 30.72s14.336 30.72 30.72 30.72 30.72-14.336 30.72-30.72-14.336-30.72-30.72-30.72z m0 40.96c-6.144 0-10.24-4.096-10.24-10.24s4.096-10.24 10.24-10.24 10.24 4.096 10.24 10.24-4.096 10.24-10.24 10.24zM448.512 347.136h-61.44v61.44h61.44v-61.44z m-40.96 20.48h20.48v20.48h-20.48v-20.48zM694.272 347.136h-61.44v61.44h61.44v-61.44z m-40.96 20.48h20.48v20.48h-20.48v-20.48zM114.688 234.496h-20.48v20.48h20.48v-20.48z m0 40.96h-20.48v20.48h20.48v-20.48z m0 40.96h-20.48v20.48h20.48v-20.48z m0 40.96h-20.48v20.48h20.48v-20.48z m0 40.96h-20.48v20.48h20.48v-20.48z m0 40.96h-20.48v20.48h20.48v-20.48z m0 40.96h-20.48v20.48h20.48v-20.48z m0 40.96h-20.48v20.48h20.48v-20.48z m0 40.96h-20.48v20.48h20.48v-20.48z m0 40.96h-20.48v20.48h20.48v-20.48z m6.144 26.624l-12.288 16.384 16.384 12.288 12.288-16.384-16.384-12.288z m34.816 22.528l-12.288 16.384 16.384 12.288 12.288-16.384-16.384-12.288z m32.768 22.528l-12.288 16.384 16.384 12.288 12.288-16.384-16.384-12.288z m34.816 24.576l-12.288 16.384 16.384 12.288 12.288-16.384-16.384-12.288z m32.768 22.528l-12.288 16.384 16.384 12.288 12.288-16.384-16.384-12.288z m32.768 22.528l-12.288 16.384 18.432 12.288 12.288-16.384-18.432-12.288z m34.816 24.576l-12.288 16.384 16.384 12.288 12.288-16.384-16.384-12.288z m32.768 22.528l-12.288 16.384 16.384 12.288 12.288-16.384-16.384-12.288zM389.12 814.08l-12.288 16.384 16.384 12.288 12.288-16.384-16.384-12.288zM540.672 375.808m-40.96 0a40.96 40.96 0 1 1 81.92 0 40.96 40.96 0 1 1-81.92 0Z"  horiz-adv-x="1024" />

    
    <glyph glyph-name="_wodeyiban" unicode="&#58938;" d="M684.032 517.7344l-184.32-193.9456-160.768 151.1424q-14.7456-140.4928 16.9984-182.4768c30.72-40.96 138.4448-100.9664 155.4432-102.4 105.8816-13.1072 227.328 90.5216 227.328 189.2352 0.6144 84.992-17.8176 131.4816-54.6816 138.4448zM540.8768-46.08a10.24 10.24 0 0 0-8.8064 5.12 10.4448 10.4448 0 0 0 3.6864 14.1312l277.0944 159.9488a10.24 10.24 0 0 0 10.24-17.8176L545.9968-44.032a9.216 9.216 0 0 0-5.12-2.048z m-85.1968 49.152a12.0832 12.0832 0 0 0-5.12 2.048L181.0432 160.768a10.24 10.24 0 0 0 10.24 17.8176l269.5168-155.648a10.4448 10.4448 0 0 0 3.6864-14.1312 10.24 10.24 0 0 0-8.8064-5.12zM895.5904 158.72a10.24 10.24 0 0 0-10.24 10.24V573.2352L535.7568 775.168a10.24 10.24 0 0 0 10.24 17.8176l359.8336-207.872v-415.5392a10.24 10.24 0 0 0-10.24-10.8544zM186.1632 252.3136a10.24 10.24 0 0 0-10.24 10.24V585.1136l284.672 163.84a10.4448 10.4448 0 0 0 14.1312-3.6864A10.6496 10.6496 0 0 0 471.04 732.16L196.4032 573.2352v-310.6816a10.24 10.24 0 0 0-10.24-10.24zM299.2128 506.88a9.216 9.216 0 0 0-5.12 1.4336l-106.496 61.44a10.24 10.24 0 0 0 10.24 17.8176l106.496-61.44a10.4448 10.4448 0 0 0 3.6864-14.1312 10.24 10.24 0 0 0-8.8064-5.12zM541.2864-42.3936a10.24 10.24 0 0 0-10.24 10.24v122.88a10.24 10.24 0 0 0 10.24 10.24 10.24 10.24 0 0 0 10.24-10.24v-122.88a10.24 10.24 0 0 0-10.24-10.24zM786.6368 506.88a10.24 10.24 0 0 0-8.8064 5.12 10.4448 10.4448 0 0 0 3.6864 14.1312l106.496 61.44a10.24 10.24 0 0 0 13.9264-3.8912 10.0352 10.0352 0 0 0-3.6864-13.9264l-106.496-61.44a9.216 9.216 0 0 0-5.12-1.4336zM540.8768 179.2a215.04 215.04 0 1 0 215.04 215.04A215.2448 215.2448 0 0 0 540.8768 179.2z m0 409.6a194.56 194.56 0 1 1 194.56-194.56 194.7648 194.7648 0 0 1-194.56 194.56zM495.2064 300.032a10.6496 10.6496 0 0 0-2.2528 2.048l-70.2464 75.3664a18.0224 18.0224 0 0 0 0 24.3712 15.36 15.36 0 0 0 22.7328 0l62.8736-67.7888 128 137.6256a15.36 15.36 0 0 0 22.7328 0 18.2272 18.2272 0 0 0 0-24.576l-139.264-149.7088a15.36 15.36 0 0 0-22.7328 0 9.6256 9.6256 0 0 0-1.8432 2.6624zM114.4832 231.0144h-20.48v20.48h20.48z m0 40.96h-20.48v20.48h20.48z m0 40.96h-20.48v20.48h20.48z m0 40.96h-20.48v20.48h20.48z m0 40.96h-20.48v20.48h20.48z m0 40.96h-20.48v20.48h20.48z m0 40.96h-20.48v20.48h20.48z m0 40.96h-20.48v20.48h20.48z m0 40.96h-20.48v20.48h20.48z m0 40.96h-20.48v20.48h20.48z m-5.12 32.1536l-10.24 18.432 17.8176 10.24 10.24-17.8176z m35.4304 20.48l-10.24 18.432 17.8176 10.24 10.24-17.8176z m35.4304 20.48l-10.24 18.432 17.8176 10.24 10.24-17.8176z m35.6352 20.48L204.8 711.68l17.6128 10.24 10.24-17.8176z m35.4304 20.48l-10.24 18.432 17.6128 10.24 10.24-17.8176z m35.4304 20.48l-10.24 18.432 17.8176 10.24 10.24-17.8176z m35.4304 20.48l-10.24 18.432 17.8176 10.24 10.24-17.8176z m35.4304 20.48L348.16 793.6l17.8176 10.24 10.24-17.8176z m35.6352 20.48l-10.24 18.432 17.6128 10.24 10.24-17.8176z m35.4304 20.48l-10.24 18.432 17.6128 10.24 10.24-17.8176zM540.8768 783.9744m-40.96 0a40.96 40.96 0 1 1 81.92 0 40.96 40.96 0 1 1-81.92 0ZM540.8768-35.2256m-40.96 0a40.96 40.96 0 1 1 81.92 0 40.96 40.96 0 1 1-81.92 0ZM192.7168 169.5744m-40.96 0a40.96 40.96 0 1 1 81.92 0 40.96 40.96 0 1 1-81.92 0ZM192.7168 579.1744m-40.96 0a40.96 40.96 0 1 1 81.92 0 40.96 40.96 0 1 1-81.92 0ZM889.0368 579.1744m-40.96 0a40.96 40.96 0 1 1 81.92 0 40.96 40.96 0 1 1-81.92 0ZM889.0368 169.5744m-40.96 0a40.96 40.96 0 1 1 81.92 0 40.96 40.96 0 1 1-81.92 0Z"  horiz-adv-x="1024" />

    
    <glyph glyph-name="_wodedaiban" unicode="&#58939;" d="M507.2896 584.2944l-10.8544-204.8-153.6-133.12q92.5696-66.9696 134.144-72.2944a186.9824 186.9824 0 0 1 214.016 143.36q53.0432 207.0528-183.7056 266.8544zM476.5696 404.48a16.9984 16.9984 0 0 0 11.6736 4.5056 16.1792 16.1792 0 0 0 11.4688-4.5056 15.1552 15.1552 0 0 0 0-22.3232 16.7936 16.7936 0 0 0-23.1424 0 15.5648 15.5648 0 0 0 0 22.3232zM389.12 277.0944a16.9984 16.9984 0 0 1 12.0832 5.12l65.536 68.608a51.4048 51.4048 0 0 1 20.48-4.5056 50.5856 50.5856 0 0 1 34.816 13.9264 46.4896 46.4896 0 0 1 0 66.9696 50.7904 50.7904 0 0 1-69.632 0 45.8752 45.8752 0 0 1-9.216-54.272l-66.3552-69.2224a15.36 15.36 0 0 1 2.048-22.1184 16.9984 16.9984 0 0 1 10.24-4.5056zM840.9088 578.3552L491.52 780.288a10.0352 10.0352 0 0 0-3.8912 13.312 10.4448 10.4448 0 0 0 13.9264 3.8912l359.8336-207.2576v-415.5392a10.24 10.24 0 0 0-20.48 0z m-688.9472 0v-310.6816a10.24 10.24 0 0 0-20.48 0V590.2336l284.672 163.84a10.24 10.24 0 1 0 10.24-17.8176z m264.3968-550.2976a10.4448 10.4448 0 0 0 3.6864-14.1312 10.24 10.24 0 0 0-13.9264-3.6864l-269.5168 155.648a10.0352 10.0352 0 0 0-3.6864 13.312 10.24 10.24 0 0 0 13.9264 3.8912zM768.4096 138.24a10.24 10.24 0 0 0 10.24-17.8176l-277.0944-159.3344a10.0352 10.0352 0 0 0-13.9264 3.6864 10.4448 10.4448 0 0 0 3.6864 14.1312zM283.0336 406.3232a10.24 10.24 0 0 0 20.48-2.4576c0-6.5536-1.2288-13.312-1.4336-20.48a10.24 10.24 0 0 0-20.48 0 193.536 193.536 0 0 0 1.4336 22.9376z m17.408 61.44a10.4448 10.4448 0 0 0 13.7216 5.12 10.0352 10.0352 0 0 0 4.9152-13.5168c-2.2528-5.3248-4.5056-10.8544-6.5536-16.384a10.24 10.24 0 0 0-12.9024-6.3488 10.4448 10.4448 0 0 0-6.3488 13.1072c2.048 6.7584 4.5056 12.6976 7.168 18.6368z m37.888 56.9344a10.24 10.24 0 0 0 14.336 0 10.24 10.24 0 0 0 0-14.5408 178.7904 178.7904 0 0 1-12.4928-14.9504 10.24 10.24 0 1 0-16.1792 12.4928c4.9152 6.7584 9.4208 12.288 14.336 17.6128z m-53.248-185.5488a10.24 10.24 0 1 0 20.48 3.6864 194.3552 194.3552 0 1 1 117.76 216.2688 10.24 10.24 0 1 0-7.7824 19.0464 215.2448 215.2448 0 1 0-130.048-239.0016zM490.2912 402.8416a10.24 10.24 0 0 0 10.24-10.24v-409.6a10.24 10.24 0 0 0-10.24-10.24 10.4448 10.4448 0 0 0-10.24 10.24v409.6a10.24 10.24 0 0 0 10.24 10.24zM496.8448 390.144a10.24 10.24 0 0 0-13.9264-4.3008L139.4688 568.32a10.24 10.24 0 0 0-4.3008 13.9264 10.24 10.24 0 0 0 13.9264 4.096L492.544 404.48a10.0352 10.0352 0 0 0 4.3008-14.336zM482.5088 386.6624a10.4448 10.4448 0 0 0 4.3008 13.9264l361.6768 192.3072a10.24 10.24 0 0 0 13.7216-4.3008 10.4448 10.4448 0 0 0-4.096-13.9264l-361.6768-192.3072a10.4448 10.4448 0 0 0-13.9264 4.3008zM518.5536 777.4208m-40.96 0a40.96 40.96 0 1 1 81.92 0 40.96 40.96 0 1 1-81.92 0ZM850.1248 584.4992m-40.96 0a40.96 40.96 0 1 1 81.92 0 40.96 40.96 0 1 1-81.92 0ZM851.968 174.4896m-40.96 0a40.96 40.96 0 1 1 81.92 0 40.96 40.96 0 1 1-81.92 0ZM496.4352-30.1056m-40.96 0a40.96 40.96 0 1 1 81.92 0 40.96 40.96 0 1 1-81.92 0ZM922.8288 236.1344h-20.48v20.48h20.48z m0 40.96h-20.48v20.48h20.48z m0 40.96h-20.48v20.48h20.48z m0 40.96h-20.48v20.48h20.48z m0 40.96h-20.48v20.48h20.48z m0 40.96h-20.48v20.48h20.48z m0 40.96h-20.48v20.48h20.48z m0 40.96h-20.48v20.48h20.48z m0 40.96h-20.48v20.48h20.48z m0 40.96h-20.48v20.48h20.48z m-33.1776 21.9136l-17.6128 10.24 10.24 17.8176 17.6128-10.24z m-35.4304 20.48l-17.6128 10.24 10.24 17.8176 17.6128-10.24z m-35.4304 20.48l-17.8176 10.24 10.24 17.8176 17.8176-10.24z m-35.4304 20.48l-17.8176 10.24 10.24 17.8176 17.8176-10.24z m-35.4304 20.48l-17.8176 10.24 10.24 17.8176 17.8176-10.24z m-35.6352 20.48l-17.6128 10.24 10.24 17.8176 17.6128-10.24z m-35.4304 20.48l-17.6128 10.24 10.24 17.8176 17.6128-10.24z m-35.4304 20.48l-17.8176 10.24 10.24 17.8176 17.8176-10.24z m-35.4304 20.48l-17.8176 10.24 10.24 17.8176 17.8176-10.24z m-35.4304 20.48l-17.6128 10.24 10.24 17.8176 17.8176-10.24zM142.9504 174.08m-40.96 0a40.96 40.96 0 1 1 81.92 0 40.96 40.96 0 1 1-81.92 0ZM142.1312 584.704m-40.96 0a40.96 40.96 0 1 1 81.92 0 40.96 40.96 0 1 1-81.92 0Z"  horiz-adv-x="1024" />

    
    <glyph glyph-name="_jiantoujian" unicode="&#58940;" d="M936.32 34.56a78.08 78.08 0 0 0-74.88-74.88l-516.48-11.52a69.76 69.76 0 0 0-71.68 71.68 78.08 78.08 0 0 0 74.88 74.88l340.48 7.04-592 592a72.96 72.96 0 0 0 0 103.04 72.96 72.96 0 0 0 103.04 0l592-592 7.04 340.48a76.8 76.8 0 0 0 74.88 74.88 69.76 69.76 0 0 0 71.68-71.68z"  horiz-adv-x="1024" />

    
    <glyph glyph-name="_jiantouzeng" unicode="&#58941;" d="M936.32 733.44l11.52-516.48a69.76 69.76 0 0 0-71.68-71.68 76.8 76.8 0 0 0-74.88 74.88l-7.04 340.48-592-592a72.96 72.96 0 0 0-103.04 0 72.96 72.96 0 0 0 0 103.04l592 592-343.04 9.6a78.08 78.08 0 0 0-74.88 74.88 69.76 69.76 0 0 0 71.68 71.68l516.48-11.52a78.08 78.08 0 0 0 74.88-74.88z"  horiz-adv-x="1024" />

    
    <glyph glyph-name="_topxialaxia" unicode="&#58942;" d="M0 896m192 0l640 0q192 0 192-192l0-640q0-192-192-192l-640 0q-192 0-192 192l0 640q0 192 192 192ZM512 350.08l169.6 169.6a48 48 0 0 0 67.84 0 47.36 47.36 0 0 0 0-67.84l-203.52-203.52a48 48 0 0 0-67.84 0L274.56 451.84a47.36 47.36 0 0 0 0 67.84 48 48 0 0 0 67.84 0z"  horiz-adv-x="1024" />

    
    <glyph glyph-name="_topsousuo" unicode="&#58943;" d="M928 25.6L768 179.2c134.4 147.2 121.6 377.6-19.2 518.4C595.2 844.8 352 844.8 198.4 697.6 128 627.2 83.2 531.2 83.2 428.8s38.4-198.4 115.2-268.8c140.8-134.4 352-147.2 512-32l160-160c6.4-6.4 19.2-12.8 25.6-12.8 12.8 0 19.2 6.4 32 12.8 6.4 6.4 12.8 19.2 12.8 25.6 0 12.8-6.4 25.6-12.8 32zM166.4 428.8c0 166.4 140.8 300.8 307.2 300.8 166.4 0 300.8-134.4 307.2-300.8 0-166.4-140.8-300.8-307.2-300.8-166.4 0-300.8 134.4-307.2 300.8z"  horiz-adv-x="1024" />

    
    <glyph glyph-name="_topxiaoxi" unicode="&#58944;" d="M910.222222 118.328889a22.186667 22.186667 0 0 1 0 10.24 216.177778 216.177778 0 0 1-95.004444 150.186667V440.888889a293.546667 293.546667 0 0 1-195.128889 274.773333 106.382222 106.382222 0 0 1-211.626667 0A295.253333 295.253333 0 0 1 211.057778 440.888889v-162.133333A216.177778 216.177778 0 0 1 113.777778 129.137778a25.6 25.6 0 0 1 0-15.928889A113.777778 113.777778 0 0 1 113.777778 99.555556a9.102222 9.102222 0 0 1 9.102222-8.533334h778.24A9.102222 9.102222 0 0 1 910.222222 99.555556a113.777778 113.777778 0 0 1 0 14.222222v4.551111z m-300.942222-47.786667H414.72a9.102222 9.102222 0 0 1-9.102222-9.102222 106.382222 106.382222 0 0 1 212.764444 0 9.102222 9.102222 0 0 1-9.102222 9.102222z"  horiz-adv-x="1024" />

    
    <glyph glyph-name="_topriqi" unicode="&#58945;" d="M347.022222 611.555556c-17.066667 0-28.444444 17.066667-28.444444 34.133333V776.533333c0 17.066667 17.066667 34.133333 34.133333 34.133334s34.133333-17.066667 34.133333-34.133334v-130.844444c-5.688889-17.066667-17.066667-34.133333-39.822222-34.133333zM967.111111 611.555556v-523.377778c0-73.955556-56.888889-130.844444-130.844444-130.844445H187.733333c-73.955556 0-130.844444 56.888889-130.844444 130.844445V611.555556c0 73.955556 56.888889 130.844444 130.844444 130.844444h113.777778v-96.711111c0-28.444444 22.755556-51.2 51.2-51.2s45.511111 22.755556 45.511111 51.2V742.4h227.555556v-96.711111c0-28.444444 22.755556-51.2 51.2-51.2s51.2 22.755556 51.2 51.2V742.4h113.777778C910.222222 742.4 967.111111 685.511111 967.111111 611.555556zM381.155556 184.888889c0 17.066667-17.066667 34.133333-34.133334 34.133333H284.444444c-17.066667 0-34.133333-17.066667-34.133333-34.133333s17.066667-28.444444 34.133333-28.444445h62.577778c22.755556 0 34.133333 11.377778 34.133334 28.444445z m0 130.844444c0 17.066667-17.066667 34.133333-34.133334 34.133334H284.444444c-17.066667 0-34.133333-17.066667-34.133333-34.133334s17.066667-34.133333 34.133333-34.133333h62.577778c22.755556 5.688889 34.133333 17.066667 34.133334 34.133333z m193.422222-130.844444c0 17.066667-17.066667 34.133333-34.133334 34.133333H477.866667c-17.066667 0-34.133333-17.066667-34.133334-34.133333s17.066667-28.444444 34.133334-28.444445h62.577777c22.755556 0 34.133333 11.377778 34.133334 28.444445z m0 130.844444c0 17.066667-17.066667 34.133333-34.133334 34.133334H477.866667c-17.066667 0-34.133333-17.066667-34.133334-34.133334s17.066667-34.133333 34.133334-34.133333h62.577777c22.755556 5.688889 34.133333 17.066667 34.133334 34.133333z m199.111111-130.844444c0 17.066667-17.066667 34.133333-34.133333 34.133333h-62.577778c-17.066667 0-34.133333-17.066667-34.133334-34.133333s17.066667-34.133333 34.133334-34.133333H739.555556c17.066667 5.688889 34.133333 17.066667 34.133333 34.133333z m0 130.844444c0 17.066667-17.066667 34.133333-34.133333 34.133334h-62.577778c-17.066667 0-34.133333-17.066667-34.133334-34.133334s17.066667-34.133333 34.133334-34.133333H739.555556c17.066667 5.688889 34.133333 17.066667 34.133333 34.133333z m130.844444 199.111111c0 17.066667-17.066667 34.133333-34.133333 34.133334H153.6c-17.066667 0-34.133333-17.066667-34.133333-34.133334s17.066667-34.133333 34.133333-34.133333h716.8c17.066667 0 34.133333 17.066667 34.133333 34.133333z m-199.111111 130.844445V776.533333c0 17.066667-17.066667 34.133333-34.133333 34.133334s-34.133333-17.066667-34.133333-34.133334v-130.844444c0-17.066667 17.066667-34.133333 34.133333-34.133333 22.755556 0 34.133333 17.066667 34.133333 34.133333z"  horiz-adv-x="1024" />

    
    <glyph glyph-name="_topxialashang" unicode="&#58946;" d="M0 896m192 0l640 0q192 0 192-192l0-640q0-192-192-192l-640 0q-192 0-192 192l0 640q0 192 192 192ZM512 417.92l-169.6-169.6a48 48 0 0 0-67.84 0 47.36 47.36 0 0 0 0 67.84l203.52 203.52a48 48 0 0 0 67.84 0l203.52-203.52a47.36 47.36 0 0 0 0-67.84 48 48 0 0 0-67.84 0z"  horiz-adv-x="1024" />

    
    <glyph glyph-name="_topshouye" unicode="&#58947;" d="M943.786667 440.888889L568.888889 815.786667a79.075556 79.075556 0 0 1-113.777778 0L80.213333 440.888889a79.075556 79.075556 0 0 1 56.888889-135.395556h7.395556v-271.928889A106.951111 106.951111 0 0 1 250.311111-71.111111h133.688889a28.444444 28.444444 0 0 1 21.048889 9.671111 30.151111 30.151111 0 0 1 29.013333 29.013333v279.324445h154.737778v-279.324445a30.151111 30.151111 0 0 1 29.013333-29.013333H625.777778a27.875556 27.875556 0 0 1 21.617778-10.24h126.293333a105.813333 105.813333 0 0 1 106.382222 105.813333v272.497778h7.395556a79.075556 79.075556 0 0 1 56.888889 135.395556z"  horiz-adv-x="1024" />

    
    <glyph glyph-name="_CDjiantou" unicode="&#58948;" d="M557.226667 384L331.093333 610.133333a64 64 0 0 0 0 90.453334 63.146667 63.146667 0 0 0 90.453334 0l271.36-271.36a64 64 0 0 0 0-90.453334L421.546667 67.413333a63.146667 63.146667 0 0 0-90.453334 0 64 64 0 0 0 0 90.453334z"  horiz-adv-x="1024" />

    
    <glyph glyph-name="_CDjiantouH" unicode="&#58949;" d="M557.226667 384L331.093333 610.133333a64 64 0 0 0 0 90.453334 63.146667 63.146667 0 0 0 90.453334 0l271.36-271.36a64 64 0 0 0 0-90.453334L421.546667 67.413333a63.146667 63.146667 0 0 0-90.453334 0 64 64 0 0 0 0 90.453334z"  horiz-adv-x="1024" />

    
    <glyph glyph-name="_CDshouqi" unicode="&#58950;" d="M591.36 176h288a48 48 0 1 0 0-96h-288a48 48 0 0 0 0 96z m0 512h288a48 48 0 1 0 0-96h-288a48 48 0 0 0 0 96z m-332.16-256h620.16a48 48 0 1 0 0-96H261.12L384 215.68a48 48 0 0 0 0-67.84 47.36 47.36 0 0 0-67.84 0L110.72 351.36a47.36 47.36 0 0 0 0 67.84l203.52 203.52A48 48 0 0 0 384 554.88z"  horiz-adv-x="1024" />

    
    <glyph glyph-name="_CDshanglvxietong" unicode="&#58951;" d="M288 736v-704H198.4a102.4 102.4 0 0 0-102.4 102.4V633.6a102.4 102.4 0 0 0 102.4 102.4z m448 0h89.6a102.4 102.4 0 0 0 102.4-102.4v-499.2a102.4 102.4 0 0 0-102.4-102.4h-89.6z m-64 0v-704h-320v704z"  horiz-adv-x="1024" />

    
    <glyph glyph-name="_CDtongjichaxun" unicode="&#58952;" d="M553.6 800a373.76 373.76 0 0 0 374.4-374.4H553.6z m-83.2-83.2a374.4 374.4 0 1 1 374.4-374.4H470.4z"  horiz-adv-x="1024" />

    
    <glyph glyph-name="_CDzhankai" unicode="&#58953;" d="M480.64 128a48.64 48.64 0 0 0-48-48h-288a48 48 0 0 0 0 96h288a48.64 48.64 0 0 0 48-48z m0 512a48.64 48.64 0 0 0-48-48h-288a48 48 0 1 0 0 96h288a48.64 48.64 0 0 0 48-48zM640 554.88a48 48 0 1 0 67.84 67.84l203.52-203.52a47.36 47.36 0 0 0 0-67.84l-203.52-203.52a47.36 47.36 0 0 0-67.84 0 48 48 0 0 0 0 67.84l120.96 120.32H144.64a48 48 0 1 0 0 96H768z"  horiz-adv-x="1024" />

    
    <glyph glyph-name="_CDyusuanguanli" unicode="&#58954;" d="M288 672A32 32 0 0 1 256 640v-128a32 32 0 0 1 32-32h448A32 32 0 0 1 768 512V640a32 32 0 0 1-32 32z m-57.6 128h563.2A102.4 102.4 0 0 0 896 697.6v-627.2a102.4 102.4 0 0 0-102.4-102.4H230.4A102.4 102.4 0 0 0 128 70.4V697.6a102.4 102.4 0 0 0 102.4 102.4z"  horiz-adv-x="1024" />

    
    <glyph glyph-name="_CDxitongpeizhi" unicode="&#58955;" d="M160 352h256a64 64 0 0 0 64-64v-256a64 64 0 0 0-64-64H198.4a102.4 102.4 0 0 0-102.4 102.4V288a64 64 0 0 0 64 64z m38.4 448h217.6a64 64 0 0 0 64-64v-256a64 64 0 0 0-64-64h-256a64 64 0 0 0-64 64V697.6a102.4 102.4 0 0 0 102.4 102.4z m409.6-448h256a64 64 0 0 0 64-64v-217.6a102.4 102.4 0 0 0-102.4-102.4H608a64 64 0 0 0-64 64v256a64 64 0 0 0 64 64z m0 448h217.6a102.4 102.4 0 0 0 102.4-102.4v-217.6a64 64 0 0 0-64-64h-256a64 64 0 0 0-64 64v256a64 64 0 0 0 64 64z"  horiz-adv-x="1024" />

    
    <glyph glyph-name="_CDrichangbaoxiao" unicode="&#58956;" d="M416 32v704h409.6a102.4 102.4 0 0 0 102.4-102.4v-499.2a102.4 102.4 0 0 0-102.4-102.4z m-64 0H198.4a102.4 102.4 0 0 0-102.4 102.4v89.6a128 128 0 0 1 0 256V633.6a102.4 102.4 0 0 0 102.4 102.4h153.6z"  horiz-adv-x="1024" />

    
    <glyph glyph-name="_CDrichangyewu" unicode="&#58957;" d="M646.4 749.44l192-192h-128a64 64 0 0 0-64 64z m20.48 18.56H262.4a102.4 102.4 0 0 1-102.4-102.4v-563.2A102.4 102.4 0 0 1 262.4 0h499.2a102.4 102.4 0 0 1 102.4 102.4V576z"  horiz-adv-x="1024" />

    
    <glyph glyph-name="_CDpiaojucaiji" unicode="&#58958;" d="M320 320a32 32 0 0 1 0-64h384a32 32 0 0 1 0 64z m0 128a32 32 0 1 1-32 32 32 32 0 0 1 32-32z m128 64a32 32 0 0 1 0-64h256a32 32 0 0 1 0 64zM198.4 768h627.2a102.4 102.4 0 0 0 102.4-102.4v-563.2a102.4 102.4 0 0 0-102.4-102.4H198.4a102.4 102.4 0 0 0-102.4 102.4V665.6A102.4 102.4 0 0 0 198.4 768z"  horiz-adv-x="1024" />

    
    <glyph glyph-name="_CDmeijuzidian" unicode="&#58959;" d="M681.6 320a250.24 250.24 0 0 0-179.84-58.24H323.2V698.24h178.56a250.24 250.24 0 0 0 179.84-58.24 207.36 207.36 0 0 0 58.88-158.72A209.28 209.28 0 0 0 681.6 320z m103.68 480H238.72A106.24 106.24 0 0 1 128 700.16v-632.32a106.24 106.24 0 0 1 110.72-99.84h546.56a112.64 112.64 0 0 1 99.2 55.68h-640a39.68 39.68 0 0 0-41.6 37.12v47.36a39.68 39.68 0 0 0 41.6 37.12h499.2A144 144 0 0 1 896 280.32V700.16a106.24 106.24 0 0 1-110.72 99.84zM486.4 640H403.2v-314.88h83.2a198.4 198.4 0 0 1 133.76 37.76 156.16 156.16 0 0 1 40.96 118.4 153.6 153.6 0 0 1-40.96 119.04A199.04 199.04 0 0 1 486.4 640z"  horiz-adv-x="1024" />

    
    <glyph glyph-name="_CDxitongshezhi" unicode="&#58960;" d="M654.08 456.32A165.12 165.12 0 0 1 512 544.64a156.8 156.8 0 0 1-71.04-298.24 208.64 208.64 0 0 1 71.04-18.56A158.08 158.08 0 0 1 672.64 384a206.08 206.08 0 0 1-18.56 72.32zM576 814.72l274.56-153.6a142.72 142.72 0 0 0 77.44-120.96v-312.32a138.24 138.24 0 0 0-71.04-120.96l-273.92-153.6a154.88 154.88 0 0 0-142.08 0l-273.92 153.6a138.24 138.24 0 0 0-71.04 120.96V540.16a138.24 138.24 0 0 0 71.04 120.96l269.44 153.6a153.6 153.6 0 0 0 139.52 0z"  horiz-adv-x="1024" />

    
    <glyph glyph-name="_CDxitongguanli" unicode="&#58961;" d="M512 241.28A142.72 142.72 0 1 0 656 384 143.36 143.36 0 0 0 512 241.28zM960 448a60.16 60.16 0 0 1-41.6 42.88l-14.72 3.84a144.64 144.64 0 0 0-83.84 64 140.8 140.8 0 0 0-15.36 105.6l3.84 13.44a58.24 58.24 0 0 1-16.64 57.6A388.48 388.48 0 0 1 736 768a448 448 0 0 1-55.68 28.16 64 64 0 0 1-58.24-14.08l-10.24-10.88a147.2 147.2 0 0 0-99.84-38.4 144.64 144.64 0 0 0-99.84 39.68l-10.24 10.88a64 64 0 0 1-58.24 14.08A448 448 0 0 1 288 768a388.48 388.48 0 0 1-52.48-33.92 56.96 56.96 0 0 1-16.64-57.6l3.84-13.44a143.36 143.36 0 0 0-15.36-105.6 144.64 144.64 0 0 0-84.48-64l-14.08-3.2a57.6 57.6 0 0 1-41.6-42.24A407.04 407.04 0 0 1 64 384a391.04 391.04 0 0 1 3.2-64 58.88 58.88 0 0 1 41.6-43.52h14.08a144.64 144.64 0 0 0 84.48-64 143.36 143.36 0 0 0 15.36-105.6l-3.84-13.44a56.96 56.96 0 0 1 16.64-57.6 459.52 459.52 0 0 1 52.48-35.84 350.08 350.08 0 0 1 55.68-28.16 64 64 0 0 1 58.24 14.08l10.24 10.24a142.08 142.08 0 0 0 99.84 38.4 144.64 144.64 0 0 0 100.48-39.68l9.6-10.24a64 64 0 0 1 58.24-14.08 448 448 0 0 1 55.68 29.44 388.48 388.48 0 0 1 52.48 33.92 58.24 58.24 0 0 1 16.64 57.6l-3.84 14.08a142.08 142.08 0 0 0 15.36 104.96 144.64 144.64 0 0 0 84.48 64h14.08A58.88 58.88 0 0 1 960 320a391.04 391.04 0 0 1 0 64 407.04 407.04 0 0 1 0 64z"  horiz-adv-x="1024" />

    
    <glyph glyph-name="_CDjichushuju" unicode="&#58962;" d="M704 512a32 32 0 0 1-32-32v-256a32 32 0 0 1 64 0v256A32 32 0 0 1 704 512zM512 576a32 32 0 0 1-32-32v-320a32 32 0 0 1 64 0v320A32 32 0 0 1 512 576zM320 448a32 32 0 0 1-32-32v-192a32 32 0 0 1 64 0v192A32 32 0 0 1 320 448zM198.4 768h627.2a102.4 102.4 0 0 0 102.4-102.4v-563.2a102.4 102.4 0 0 0-102.4-102.4H198.4a102.4 102.4 0 0 0-102.4 102.4V665.6A102.4 102.4 0 0 0 198.4 768z"  horiz-adv-x="1024" />

    
    <glyph glyph-name="_CDgerenzhongxin" unicode="&#58963;" d="M245.76 571.52A263.04 263.04 0 0 0 512 832a263.68 263.68 0 0 0 266.24-260.48A263.68 263.68 0 0 0 512 311.04a263.04 263.04 0 0 0-266.24 260.48zM928-64h-832v19.84a336.64 336.64 0 0 0 89.6 230.4 380.16 380.16 0 0 0 149.76 100.48 53.76 53.76 0 0 0 58.24-16L512 128l113.28 147.2a53.12 53.12 0 0 0 59.52 16.64 373.12 373.12 0 0 0 147.2-92.16 341.12 341.12 0 0 0 97.92-243.84z"  horiz-adv-x="1024" />

    
    <glyph glyph-name="_YQshouye" unicode="&#58964;" d="M991.405621 453.02171L603.204625 856.580109a125.418783 125.418783 0 0 1-182.582447 0L33.274371 453.02171c-40.099883-41.806261-33.274371-77.640199-28.155237-92.997601a65.695553 65.695553 0 0 1 66.548742-40.099883h56.310474v-310.560797A131.391106 131.391106 0 0 1 250.837567-128h165.518666V200.477766c0 35.833938-5.972323 55.457285 30.714804 55.457285h130.537917c35.833938 0 30.714804-19.623347 30.714805-55.457285V-128h164.665477a130.537917 130.537917 0 0 1 122.859216 137.363429V319.924226h56.310474a68.25512 68.25512 0 0 1 71.667877 40.099883 85.3189 85.3189 0 0 1-32.421182 92.997601z"  horiz-adv-x="1027" />

    
    <glyph glyph-name="_YQguanbi" unicode="&#58965;" d="M512 444.586667l210.773333 210.773333a42.666667 42.666667 0 0 0 60.586667-60.586667L572.586667 384l210.773333-210.773333a42.666667 42.666667 0 0 0-60.586667-60.586667L512 323.413333 301.226667 112.64a42.666667 42.666667 0 0 0-60.586667 60.586667L451.413333 384 240.64 594.773333a42.666667 42.666667 0 0 0 60.586667 60.586667z"  horiz-adv-x="1024" />

    
    <glyph glyph-name="_YQguanbigengduo" unicode="&#58966;" d="M128 448h64v-64H128z m0 128h64v-64H128z m0-256h64v-64H128z m512-256h64v-64h-64z m-128 0h64v-64H512z m-128 0h64v-64H384z m-256 64h128v-128H128z m384 301.44l136.96 136.96a32 32 0 0 0 45.44-45.44L554.24 384l136.96-136.96a32 32 0 1 0-45.44-45.44L512 338.56l-140.16-136.96a32 32 0 1 0-45.44 45.44L463.36 384 326.4 520.96a32 32 0 0 0 45.44 45.44zM860.8 128V620.8a108.8 108.8 0 0 1-108.8 108.8H256V640H128V768h627.2a147.2 147.2 0 0 0 147.2-147.2V0H768v128z"  horiz-adv-x="1024" />

    
    <glyph glyph-name="_YQquanbuguanbi" unicode="&#58967;" d="M128 729.6V768h627.2a147.2 147.2 0 0 0 147.2-147.2V0h-38.4V620.8a108.8 108.8 0 0 1-108.8 108.8zM128 320h64v-64H128z m0 128h64v-64H128z m0 128h64v-64H128z m0 128h64v-64H128z m0-512h64v-64H128z m640-128h64v-64h-64z m-128 0h64v-64h-64z m-128 0h64v-64H512z m-128 0h64v-64H384z m-128 0h64v-64H256z m-128 0h64v-64H128z m384 365.44l136.96 136.96a32 32 0 0 0 45.44-45.44L554.24 384l136.96-136.96a32 32 0 1 0-45.44-45.44L512 338.56l-140.16-136.96a32 32 0 1 0-45.44 45.44L463.36 384 326.4 520.96a32 32 0 0 0 45.44 45.44z"  horiz-adv-x="1024" />

    
    <glyph glyph-name="_shurukuangxialaxia" unicode="&#58968;" d="M512 321.828571l219.428571 219.428572a43.154286 43.154286 0 0 0 62.171429 0 44.617143 44.617143 0 0 0 0-62.171429L542.72 228.937143a42.422857 42.422857 0 0 0-61.44 0l-248.685714 247.954286a44.617143 44.617143 0 0 0 0 62.171428 43.154286 43.154286 0 0 0 62.171428 0z"  horiz-adv-x="1024" />

    
    <glyph glyph-name="_shurukuangxialashang" unicode="&#58969;" d="M512 446.171429l219.428571-219.428572a43.154286 43.154286 0 0 1 62.171429 0 44.617143 44.617143 0 0 1 0 62.171429L542.72 539.062857a42.422857 42.422857 0 0 1-61.44 0l-248.685714-247.954286a44.617143 44.617143 0 0 1 0-62.171428 43.154286 43.154286 0 0 1 62.171428 0z"  horiz-adv-x="1024" />

    
    <glyph glyph-name="_shurukuangguanbi" unicode="&#58970;" d="M512 384m-475.428571 0a475.428571 475.428571 0 1 1 950.857142 0 475.428571 475.428571 0 1 1-950.857142 0ZM512 435.2l153.6 153.6c14.628571 14.628571 36.571429 14.628571 51.2 0 14.628571-14.628571 14.628571-36.571429 0-51.2L563.2 384l153.6-153.6c14.628571-14.628571 14.628571-36.571429 0-51.2-14.628571-14.628571-36.571429-14.628571-51.2 0L512 332.8 358.4 179.2c-14.628571-14.628571-36.571429-14.628571-51.2 0-14.628571 14.628571-14.628571 36.571429 0 51.2L460.8 384 307.2 537.6c-14.628571 14.628571-14.628571 36.571429 0 51.2 14.628571 14.628571 36.571429 14.628571 51.2 0L512 435.2z"  horiz-adv-x="1024" />

    
    <glyph glyph-name="_shurukuangriqi" unicode="&#58971;" d="M146.285714 749.714286c-43.885714 0-73.142857-29.257143-73.142857-73.142857v-658.285715c0-43.885714 29.257143-73.142857 73.142857-73.142857h731.428572c43.885714 0 73.142857 29.257143 73.142857 73.142857V676.571429c0 43.885714-29.257143 73.142857-73.142857 73.142857H146.285714z m0 73.142857h731.428572c80.457143 0 146.285714-65.828571 146.285714-146.285714v-658.285715c0-80.457143-65.828571-146.285714-146.285714-146.285714H146.285714c-80.457143 0-146.285714 65.828571-146.285714 146.285714V676.571429c0 80.457143 65.828571 146.285714 146.285714 146.285714zM256 896c21.942857 0 36.571429-14.628571 36.571429-36.571429v-146.285714c0-21.942857-14.628571-36.571429-36.571429-36.571428S219.428571 691.2 219.428571 713.142857v146.285714c0 21.942857 14.628571 36.571429 36.571429 36.571429zM768 896c21.942857 0 36.571429-14.628571 36.571429-36.571429v-146.285714c0-21.942857-14.628571-36.571429-36.571429-36.571428s-36.571429 14.628571-36.571429 36.571428v146.285714c0 21.942857 14.628571 36.571429 36.571429 36.571429zM73.142857 603.428571h877.714286v-73.142857H73.142857zM256 384h146.285714c21.942857 0 36.571429-14.628571 36.571429-36.571429s-14.628571-36.571429-36.571429-36.571428h-146.285714c-21.942857 0-36.571429 14.628571-36.571429 36.571428s14.628571 36.571429 36.571429 36.571429zM256 237.714286h146.285714c21.942857 0 36.571429-14.628571 36.571429-36.571429s-14.628571-36.571429-36.571429-36.571428h-146.285714c-21.942857 0-36.571429 14.628571-36.571429 36.571428s14.628571 36.571429 36.571429 36.571429zM621.714286 384h146.285714c21.942857 0 36.571429-14.628571 36.571429-36.571429s-14.628571-36.571429-36.571429-36.571428h-146.285714c-21.942857 0-36.571429 14.628571-36.571429 36.571428s14.628571 36.571429 36.571429 36.571429zM621.714286 237.714286h146.285714c21.942857 0 36.571429-14.628571 36.571429-36.571429s-14.628571-36.571429-36.571429-36.571428h-146.285714c-21.942857 0-36.571429 14.628571-36.571429 36.571428s14.628571 36.571429 36.571429 36.571429z"  horiz-adv-x="1024" />

    
    <glyph glyph-name="_shurukuangsousuoyonghuguanli" unicode="&#58973;" d="M364.8 326.4C281.6 377.6 224 467.2 224 576 224 736 352 864 512 864s288-128 288-288c0-108.8-57.6-198.4-140.8-249.6 160-57.6 268.8-211.2 268.8-390.4 0-19.2-12.8-32-32-32s-32 12.8-32 32c0 192-160 352-352 352S160 128 160-64c0-19.2-12.8-32-32-32s-32 12.8-32 32c0 179.2 115.2 332.8 268.8 390.4zM512 800C390.4 800 288 697.6 288 576S390.4 352 512 352s224 102.4 224 224S633.6 800 512 800z"  horiz-adv-x="1024" />

    
    <glyph glyph-name="_shurukuangjine" unicode="&#58974;" d="M806.4 780.8L595.2 422.4h185.6v-64H556.8v-96h224v-64H556.8v-211.2H473.6v211.2H243.2v64h230.4V358.4H243.2v64h185.6L217.6 780.8h89.6L512 428.8l204.8 352z"  horiz-adv-x="1024" />

    
    <glyph glyph-name="_shurukuangshanchu" unicode="&#58975;" d="M512 384m-416 0a416 416 0 1 1 832 0 416 416 0 1 1-832 0ZM512 428.8l134.4 134.4c12.8 12.8 32 12.8 44.8 0 12.8-12.8 12.8-32 0-44.8L556.8 384l134.4-134.4c12.8-12.8 12.8-32 0-44.8-12.8-12.8-32-12.8-44.8 0L512 339.2l-134.4-134.4c-12.8-12.8-32-12.8-44.8 0-12.8 12.8-12.8 32 0 44.8L467.2 384 332.8 518.4c-12.8 12.8-12.8 32 0 44.8 12.8 12.8 32 12.8 44.8 0L512 428.8z"  horiz-adv-x="1024" />

    
    <glyph glyph-name="_shurukuangsousuo" unicode="&#58977;" d="M448 128c179.2 0 320 140.8 320 320S627.2 768 448 768 128 627.2 128 448s140.8-320 320-320z m294.4 70.4l179.2-179.2c12.8-12.8 12.8-32 0-44.8s-32-12.8-44.8 0l-179.2 179.2C627.2 96 544 64 448 64c-211.2 0-384 172.8-384 384s172.8 384 384 384 384-172.8 384-384c0-96-32-179.2-89.6-249.6z"  horiz-adv-x="1024" />

    
    <glyph glyph-name="_shurukuangshanchu1" unicode="&#58978;" d="M512 435.2l204.8 204.8c14.628571 14.628571 36.571429 14.628571 51.2 0s14.628571-36.571429 0-51.2L563.2 384l204.8-204.8c14.628571-14.628571 14.628571-36.571429 0-51.2s-36.571429-14.628571-51.2 0L512 332.8l-204.8-204.8c-14.628571-14.628571-36.571429-14.628571-51.2 0s-14.628571 36.571429 0 51.2L460.8 384 256 588.8c-14.628571 14.628571-14.628571 36.571429 0 51.2s36.571429 14.628571 51.2 0L512 435.2z"  horiz-adv-x="1024" />

    
    <glyph glyph-name="_gxiugaimima" unicode="&#58972;" d="M876.8-70.4H153.6c-19.2 0-32 12.8-32 32v448c0 25.6 12.8 38.4 32 38.4h70.4V576C224 723.2 345.6 838.4 492.8 838.4h38.4c147.2 0 268.8-121.6 268.8-262.4v-19.2c0-19.2-12.8-32-32-32s-32 12.8-32 32V576c0 108.8-89.6 198.4-198.4 198.4h-44.8C384 768 294.4 684.8 294.4 576v-128h300.8c19.2 0 32-12.8 32-32s-12.8-38.4-32-38.4H192V0h652.8v249.6c0 19.2 12.8 32 32 32s32-12.8 32-32v-281.6c0-25.6-12.8-38.4-32-38.4z m-332.8 172.8c-6.4 0-19.2 6.4-25.6 12.8-6.4 6.4-6.4 12.8-6.4 25.6 0 6.4 6.4 19.2 12.8 25.6l390.4 384c12.8 12.8 32 12.8 51.2 0 6.4-6.4 12.8-12.8 12.8-25.6 0-6.4-6.4-19.2-12.8-25.6l-390.4-384c-12.8-6.4-25.6-12.8-32-12.8z"  horiz-adv-x="1024" />

    
    <glyph glyph-name="_ggerenxinxi" unicode="&#58976;" d="M153.6-70.4c-19.2 0-32 12.8-32 32 0 166.4 102.4 320 262.4 384-83.2 51.2-128 134.4-128 224C256 716.8 377.6 838.4 518.4 838.4c147.2 0 262.4-121.6 262.4-268.8 0-140.8-108.8-256-249.6-262.4h-6.4C345.6 307.2 192 153.6 192-38.4c0-19.2-19.2-32-38.4-32z m780.8 12.8H601.6c-19.2 0-32 12.8-32 32s12.8 32 32 32h326.4c19.2 0 32-12.8 32-32s-6.4-32-25.6-32z m0 128H601.6c-19.2 0-32 12.8-32 32s12.8 32 32 32h326.4c19.2 0 32-12.8 32-32s-6.4-32-25.6-32z m0 115.2H601.6c-19.2 0-32 12.8-32 32s12.8 38.4 32 38.4h326.4c19.2 0 32-12.8 32-32s-6.4-38.4-25.6-38.4zM518.4 768c-102.4 0-192-89.6-192-198.4s89.6-198.4 198.4-198.4c51.2 0 102.4 19.2 140.8 57.6s57.6 89.6 57.6 140.8C716.8 678.4 627.2 768 518.4 768z"  horiz-adv-x="1024" />

    
    <glyph glyph-name="_gzhuxiao" unicode="&#58979;" d="M512-70.4c-57.6 0-115.2 12.8-166.4 32s-96 51.2-134.4 96c-38.4 38.4-70.4 83.2-89.6 140.8-19.2 51.2-32 108.8-32 166.4 0 147.2 70.4 281.6 192 364.8 6.4 6.4 19.2 6.4 25.6 6.4 12.8 0 19.2-6.4 25.6-19.2 12.8-19.2 6.4-38.4-12.8-51.2-96-70.4-153.6-179.2-153.6-300.8 0-198.4 153.6-358.4 345.6-358.4s345.6 160 345.6 358.4c0 121.6-57.6 230.4-153.6 300.8-19.2 12.8-19.2 32-12.8 51.2 6.4 6.4 12.8 12.8 25.6 19.2 6.4 0 19.2 0 25.6-6.4 115.2-83.2 185.6-217.6 185.6-358.4 0-57.6-12.8-115.2-32-166.4s-51.2-96-89.6-140.8c-38.4-38.4-83.2-70.4-134.4-96-44.8-25.6-102.4-38.4-160-38.4z m0 371.2c-19.2 0-38.4 19.2-38.4 38.4V800c0 19.2 19.2 38.4 38.4 38.4s38.4-19.2 38.4-38.4v-460.8c0-19.2-19.2-38.4-38.4-38.4z"  horiz-adv-x="1024" />

    
    <glyph glyph-name="_sx-chaxunxialajiantou-shouqi" unicode="&#58980;" d="M512 318.171429l197.485714 197.485714c21.942857 21.942857 51.2 21.942857 73.142857 0 21.942857-21.942857 21.942857-58.514286 0-80.457143L548.571429 201.142857c-21.942857-21.942857-58.514286-21.942857-80.457143 0L234.057143 435.2C219.428571 457.142857 219.428571 493.714286 241.371429 515.657143c21.942857 21.942857 58.514286 21.942857 80.457142 0L512 318.171429z"  horiz-adv-x="1024" />

    
    <glyph glyph-name="_sx-chaxunxialajiantou-zhankai" unicode="&#58981;" d="M512 449.828571l197.485714-197.485714c21.942857-21.942857 58.514286-21.942857 80.457143 0 14.628571 21.942857 14.628571 58.514286-7.314286 80.457143L548.571429 566.857143c-21.942857 21.942857-58.514286 21.942857-80.457143 0L241.371429 332.8c-21.942857-21.942857-21.942857-58.514286 0-80.457143 21.942857-21.942857 58.514286-21.942857 80.457142 0L512 449.828571z"  horiz-adv-x="1024" />

    
    <glyph glyph-name="_sx-shaixuan" unicode="&#58982;" d="M438.857143-54.857143c-14.628571 0-21.942857 0-36.571429 14.628572l-7.314285 7.314285c-14.628571 7.314286-29.257143 29.257143-29.257143 43.885715V340.114286c0 14.628571 0 29.257143-14.628572 43.885714L87.771429 705.828571c-7.314286 14.628571-21.942857 36.571429-7.314286 73.142858 7.314286 14.628571 21.942857 43.885714 65.828571 43.885714h731.428572c29.257143 0 51.2-14.628571 65.828571-36.571429 14.628571-29.257143 7.314286-58.514286-7.314286-73.142857L665.6 384c-7.314286-14.628571-14.628571-29.257143-14.628571-51.2v-263.314286c0-29.257143-14.628571-51.2-43.885715-65.828571l-146.285714-58.514286H438.857143z m14.628571 65.828572zM182.857143 735.085714l241.371428-299.885714c21.942857-36.571429 29.257143-65.828571 29.257143-95.085714v-299.885715l109.714286 43.885715V332.8c0 36.571429 14.628571 73.142857 36.571429 102.4l241.371428 299.885714h-658.285714z"  horiz-adv-x="1024" />

    
    <glyph glyph-name="_sx-qitaxialajiantou-zhankai" unicode="&#58983;" d="M512 449.828571l197.485714-197.485714c21.942857-21.942857 58.514286-21.942857 80.457143 0 14.628571 21.942857 14.628571 58.514286-7.314286 80.457143L548.571429 566.857143c-21.942857 21.942857-58.514286 21.942857-80.457143 0L241.371429 332.8c-21.942857-21.942857-21.942857-58.514286 0-80.457143 21.942857-21.942857 58.514286-21.942857 80.457142 0L512 449.828571z"  horiz-adv-x="1024" />

    
    <glyph glyph-name="_sx-qitaxialajiantou-shouqi" unicode="&#58984;" d="M512 318.171429l197.485714 197.485714c21.942857 21.942857 58.514286 21.942857 80.457143 0 14.628571-21.942857 14.628571-58.514286-7.314286-80.457143L548.571429 201.142857c-21.942857-21.942857-58.514286-21.942857-80.457143 0L241.371429 435.2C219.428571 457.142857 219.428571 493.714286 241.371429 515.657143c21.942857 21.942857 58.514286 21.942857 80.457142 0L512 318.171429z"  horiz-adv-x="1024" />

    
    <glyph glyph-name="_yqyeqiangengduo-shouqi" unicode="&#58985;" d="M96 352m-96 0a96 96 0 1 1 192 0 96 96 0 1 1-192 0ZM512 352m-160 0a160 160 0 1 1 320 0 160 160 0 1 1-320 0ZM928 352m-96 0a96 96 0 1 1 192 0 96 96 0 1 1-192 0Z"  horiz-adv-x="1024" />

    
    <glyph glyph-name="_yqyeqiangengduo-zhankai" unicode="&#58986;" d="M96 352m-96 0a96 96 0 1 1 192 0 96 96 0 1 1-192 0ZM512 352m-160 0a160 160 0 1 1 320 0 160 160 0 1 1-320 0ZM928 352m-96 0a96 96 0 1 1 192 0 96 96 0 1 1-192 0Z"  horiz-adv-x="1024" />

    
    <glyph glyph-name="_gjlgongjulangengduo-zhankai" unicode="&#58987;" d="M153.6 896h716.8c87.04 0 153.6-66.56 153.6-153.6v-716.8c0-87.04-66.56-153.6-153.6-153.6H153.6c-87.04 0-153.6 66.56-153.6 153.6V742.4c0 87.04 66.56 153.6 153.6 153.6zM0 742.4c0 87.04 66.56 153.6 153.6 153.6h716.8c87.04 0 153.6-66.56 153.6-153.6v-716.8c0-87.04-66.56-153.6-153.6-153.6H153.6c-87.04 0-153.6 66.56-153.6 153.6V742.4z m51.2 0v-716.8c0-56.32 46.08-102.4 102.4-102.4h716.8c56.32 0 102.4 46.08 102.4 102.4V742.4c0 56.32-46.08 102.4-102.4 102.4H153.6c-56.32 0-102.4-46.08-102.4-102.4zM512 430.08l-138.24-138.24c-15.36-15.36-35.84-15.36-51.2 0-15.36 15.36-15.36 40.96 0 56.32l163.84 163.84c15.36 15.36 40.96 15.36 56.32 0l158.72-163.84c15.36-15.36 15.36-40.96 0-56.32-15.36-15.36-40.96-15.36-56.32 0L512 430.08z"  horiz-adv-x="1024" />

    
    <glyph glyph-name="_gjlgongjulangengduo-shouqi" unicode="&#58988;" d="M153.6 896h716.8c87.04 0 153.6-66.56 153.6-153.6v-716.8c0-87.04-66.56-153.6-153.6-153.6H153.6c-87.04 0-153.6 66.56-153.6 153.6V742.4c0 87.04 66.56 153.6 153.6 153.6zM0 742.4c0 87.04 66.56 153.6 153.6 153.6h716.8c87.04 0 153.6-66.56 153.6-153.6v-716.8c0-87.04-66.56-153.6-153.6-153.6H153.6c-87.04 0-153.6 66.56-153.6 153.6V742.4z m51.2 0v-716.8c0-56.32 46.08-102.4 102.4-102.4h716.8c56.32 0 102.4 46.08 102.4 102.4V742.4c0 56.32-46.08 102.4-102.4 102.4H153.6c-56.32 0-102.4-46.08-102.4-102.4zM512 337.92L373.76 476.16c-15.36 15.36-35.84 15.36-51.2 0-15.36-15.36-15.36-40.96 0-56.32l163.84-163.84c15.36-15.36 40.96-15.36 56.32 0l158.72 163.84c15.36 15.36 15.36 40.96 0 56.32-15.36 15.36-40.96 15.36-56.32 0L512 337.92z"  horiz-adv-x="1024" />

    
    <glyph glyph-name="_fj-tupian" unicode="&#58989;" d="M947.2 793.6H76.8c-12.8 0-25.6-12.8-25.6-25.6v-768c0-12.8 12.8-25.6 25.6-25.6h870.4c12.8 0 25.6 12.8 25.6 25.6V768c0 12.8-12.8 25.6-25.6 25.6z m-25.6-51.2v-473.6l-134.4 134.4c-12.8 12.8-25.6 12.8-38.4 0L614.4 268.8 352 531.2c-12.8 12.8-25.6 12.8-38.4 0L102.4 320V742.4h819.2zM102.4 25.6v217.6l230.4 230.4 364.8-364.8c6.4-6.4 12.8-6.4 19.2-6.4s12.8 0 19.2 6.4c12.8 12.8 12.8 25.6 0 38.4l-83.2 83.2L768 345.6l153.6-153.6v-166.4H102.4z m512 409.6c70.4 0 128 57.6 128 128s-57.6 128-128 128-128-57.6-128-128 57.6-128 128-128z m0 204.8c44.8 0 76.8-32 76.8-76.8s-32-76.8-76.8-76.8-76.8 32-76.8 76.8S569.6 640 614.4 640z"  horiz-adv-x="1024" />

    
    <glyph glyph-name="_fj-doc" unicode="&#58990;" d="M979.2 524.8v-569.6H896v51.2h32V505.6l-19.2 19.2h-236.8V761.6l-19.2 19.2H320V512h-51.2V832h403.2l307.2-307.2zM857.6 576l-134.4 134.4V576h134.4z m-76.8-160v-422.4H115.2V416h665.6z m44.8 44.8H70.4v-518.4H832V460.8zM204.8 262.4v-153.6h44.8c25.6 0 38.4 12.8 51.2 32 6.4 12.8 6.4 25.6 6.4 44.8 0 25.6-6.4 44.8-12.8 57.6-6.4 12.8-25.6 19.2-44.8 19.2h-44.8z m51.2 38.4c12.8 0 25.6 0 38.4-6.4 19.2-6.4 32-12.8 38.4-32l19.2-38.4c0-12.8 6.4-25.6 6.4-38.4 0-32-6.4-57.6-19.2-83.2-19.2-25.6-44.8-38.4-83.2-38.4H153.6V300.8H256z m153.6-121.6c0-25.6 0-44.8 6.4-64 6.4-12.8 12.8-19.2 25.6-19.2s25.6 6.4 25.6 19.2c6.4 12.8 6.4 32 6.4 64 0 25.6 0 51.2-6.4 64 0 12.8-6.4 19.2-19.2 19.2-12.8 0-25.6-6.4-25.6-19.2-6.4-12.8-12.8-38.4-12.8-64zM448 300.8c32 0 51.2-12.8 64-32s19.2-51.2 19.2-89.6c0-38.4-6.4-70.4-19.2-89.6s-32-32-64-32-51.2 12.8-64 32-19.2 51.2-19.2 89.6c0 38.4 6.4 70.4 19.2 89.6s32 32 64 32z m89.6-121.6c0 44.8 12.8 76.8 32 96 19.2 19.2 44.8 32 76.8 32 38.4 0 70.4-12.8 89.6-38.4 12.8-12.8 12.8-32 19.2-44.8H704c-6.4 12.8-6.4 19.2-12.8 25.6-6.4 12.8-25.6 12.8-38.4 12.8-19.2 0-32-6.4-44.8-19.2-12.8-12.8-12.8-38.4-12.8-64s6.4-44.8 19.2-57.6c12.8-12.8 25.6-19.2 44.8-19.2 19.2 0 32 6.4 38.4 19.2 6.4 6.4 6.4 12.8 12.8 25.6h51.2c-6.4-25.6-12.8-44.8-32-64s-38.4-25.6-70.4-25.6c-32 0-64 12.8-83.2 32-25.6 25.6-38.4 51.2-38.4 89.6z"  horiz-adv-x="1024" />

    
    <glyph glyph-name="_fj-pdf" unicode="&#58991;" d="M979.2 524.8v-569.6H896v51.2h32V505.6l-19.2 19.2h-236.8V761.6l-19.2 19.2H320V512h-51.2V832h403.2l307.2-307.2zM857.6 576l-134.4 134.4V576h134.4z m-76.8-160v-422.4H115.2V416h665.6z m44.8 44.8H70.4v-518.4H832V460.8zM160 83.2V320h140.8c12.8-6.4 25.6-12.8 38.4-25.6 6.4-12.8 12.8-25.6 12.8-44.8 0-12.8 0-25.6-6.4-38.4l-25.6-25.6c-6.4-6.4-19.2-6.4-25.6-12.8-12.8 0-32-6.4-51.2-6.4h-32v-89.6h-51.2v6.4z m51.2 198.4v-70.4h25.6c19.2 0 32 0 38.4 6.4s12.8 6.4 12.8 12.8c6.4 6.4 6.4 12.8 6.4 19.2 0 6.4 0 12.8-6.4 19.2-6.4 6.4-12.8 12.8-19.2 12.8H211.2zM352 320h140.8l38.4-19.2c6.4-19.2 19.2-32 19.2-44.8 6.4-12.8 6.4-32 6.4-57.6 0-19.2 0-38.4-6.4-51.2-6.4-19.2-12.8-32-25.6-44.8-6.4-6.4-19.2-12.8-32-19.2-12.8-6.4-25.6-6.4-44.8-6.4H352V320z m51.2-38.4v-160h70.4c6.4 0 12.8 6.4 19.2 12.8 6.4 6.4 12.8 12.8 12.8 25.6 0 6.4 6.4 25.6 6.4 44.8 0 19.2 0 32-6.4 44.8-6.4 6.4-6.4 12.8-12.8 19.2-6.4 6.4-19.2 6.4-25.6 12.8h-64z m166.4-198.4V320h166.4v-38.4H620.8v-57.6h102.4v-38.4H620.8v-102.4h-51.2z"  horiz-adv-x="1024" />

    
    <glyph glyph-name="_fj-chenggong" unicode="&#58992;" d="M422.4 217.6L832 627.2c19.2 19.2 51.2 19.2 70.4 0 19.2-19.2 19.2-51.2 0-70.4l-441.6-441.6c-19.2-19.2-51.2-19.2-70.4 0L140.8 352c-19.2 19.2-19.2 51.2 0 70.4 19.2 25.6 57.6 25.6 76.8 0l204.8-204.8zM422.4 217.6L832 627.2c19.2 19.2 51.2 19.2 70.4 0 19.2-19.2 19.2-51.2 0-70.4l-441.6-441.6c-19.2-19.2-51.2-19.2-70.4 0L140.8 352c-19.2 19.2-19.2 51.2 0 70.4 19.2 25.6 57.6 25.6 76.8 0l204.8-204.8z"  horiz-adv-x="1024" />

    
    <glyph glyph-name="_ewmzhidanzhongtubiao" unicode="&#58993;" d="M292.571429 164.571429V340.114286L789.942857 837.485714l175.542857-175.542857L468.114286 164.571429H292.571429z m87.771428 138.971428v-51.2h51.2l409.6 409.6-51.2 51.2-409.6-409.6zM715.044571 701.586286l118.930286-119.003429-62.025143-62.025143-119.003428 118.930286zM760.685714 310.857143v-292.571429c0-14.628571-14.628571-29.257143-29.257143-29.257143H146.285714c-14.628571 0-29.257143 14.628571-29.257143 29.257143V603.428571c0 14.628571 14.628571 29.257143 29.257143 29.257143h256c21.942857 0 43.885714 21.942857 43.885715 43.885715s-21.942857 43.885714-43.885715 43.885714H146.285714C80.457143 720.457143 29.257143 669.257143 29.257143 603.428571v-585.142857c0-65.828571 51.2-117.028571 117.028571-117.028571h585.142857c65.828571 0 117.028571 51.2 117.028572 117.028571V310.857143c0 21.942857-21.942857 43.885714-43.885714 43.885714s-43.885714-21.942857-43.885715-43.885714z"  horiz-adv-x="1024" />

    
    <glyph glyph-name="_ewmshenheyaodian-huang" unicode="&#58994;" d="M512 384m-448 0a448 448 0 1 1 896 0 448 448 0 1 1-896 0ZM512 384m-320 0a320 320 0 1 1 640 0 320 320 0 1 1-640 0Z"  horiz-adv-x="1024" />

    
    <glyph glyph-name="_ewmshenheyaodian-lv" unicode="&#58995;" d="M512 384m-448 0a448 448 0 1 1 896 0 448 448 0 1 1-896 0ZM512 384m-320 0a320 320 0 1 1 640 0 320 320 0 1 1-640 0Z"  horiz-adv-x="1024" />

    
    <glyph glyph-name="_ewmshenheyaodian-hong" unicode="&#58996;" d="M512 384m-448 0a448 448 0 1 1 896 0 448 448 0 1 1-896 0ZM512 384m-320 0a320 320 0 1 1 640 0 320 320 0 1 1-640 0Z"  horiz-adv-x="1024" />

    
    <glyph glyph-name="_tkguanbi" unicode="&#58997;" d="M512 449.828571l248.685714 248.685715c14.628571 14.628571 43.885714 14.628571 58.514286 0s14.628571-43.885714 0-58.514286L570.514286 384l248.685714-248.685714c14.628571-14.628571 14.628571-43.885714 0-58.514286-14.628571-14.628571-43.885714-14.628571-58.514286 0L512 325.485714l-248.685714-248.685714c-14.628571-14.628571-43.885714-14.628571-58.514286 0-14.628571 14.628571-14.628571 43.885714 0 58.514286L453.485714 384 204.8 632.685714c-21.942857 14.628571-21.942857 43.885714 0 58.514286 14.628571 14.628571 43.885714 14.628571 58.514286 0L512 449.828571z"  horiz-adv-x="1024" />

    
    <glyph glyph-name="_tkjiantouyou-xuanzhong" unicode="&#58998;" d="M629.028571 384l-219.428571 219.428571c-14.628571 14.628571-14.628571 43.885714 0 58.514286 14.628571 14.628571 43.885714 14.628571 58.514286 0l248.685714-248.685714c14.628571-14.628571 14.628571-43.885714 0-58.514286l-248.685714-248.685714c-14.628571-14.628571-43.885714-14.628571-58.514286 0-14.628571 14.628571-14.628571 43.885714 0 58.514286l219.428571 219.428571z"  horiz-adv-x="1097" />

    
    <glyph glyph-name="_tkjiantouyou" unicode="&#58999;" d="M629.028571 384l-219.428571 219.428571c-14.628571 14.628571-14.628571 43.885714 0 58.514286 14.628571 14.628571 43.885714 14.628571 58.514286 0l248.685714-248.685714c14.628571-14.628571 14.628571-43.885714 0-58.514286l-248.685714-248.685714c-14.628571-14.628571-43.885714-14.628571-58.514286 0-14.628571 14.628571-14.628571 43.885714 0 58.514286l219.428571 219.428571z"  horiz-adv-x="1097" />

    
    <glyph glyph-name="_shujiantouyou-xuanzhongzhuangtai" unicode="&#59000;" d="M588.8 384L358.4 614.4c-25.6 25.6-25.6 59.733333 0 85.333333 25.6 25.6 68.266667 25.6 93.866667 0l273.066666-273.066666c25.6-25.6 25.6-68.266667 0-93.866667L452.266667 68.266667c-25.6-25.6-68.266667-25.6-93.866667 0-25.6 25.6-25.6 68.266667 0 93.866666L588.8 384z"  horiz-adv-x="1024" />

    
    <glyph glyph-name="_jiantoudanjuzhankai" unicode="&#59001;" d="M512 281.6l290.133333 290.133333c25.6 25.6 68.266667 25.6 93.866667 0s25.6-68.266667 0-93.866666L563.2 145.066667c-25.6-25.6-68.266667-25.6-93.866667 0L136.533333 477.866667c-25.6 25.6-25.6 68.266667 0 93.866666s68.266667 25.6 93.866667 0L512 281.6z"  horiz-adv-x="1024" />

    
    <glyph glyph-name="_shujiantouxia" unicode="&#59002;" d="M512 307.2L281.6 537.6c-25.6 25.6-59.733333 25.6-85.333333 0-25.6-25.6-25.6-68.266667 0-93.866667l273.066666-273.066666c25.6-25.6 68.266667-25.6 93.866667 0l273.066667 273.066666c17.066667 25.6 17.066667 68.266667-8.533334 93.866667-25.6 25.6-68.266667 25.6-93.866666 0L512 307.2z"  horiz-adv-x="1024" />

    
    <glyph glyph-name="_jiantoudanjushouqi" unicode="&#59003;" d="M512 435.2l290.133333-290.133333c25.6-25.6 68.266667-25.6 93.866667 0s25.6 68.266667 0 93.866666L563.2 571.733333c-25.6 25.6-68.266667 25.6-93.866667 0L136.533333 238.933333c-25.6-25.6-25.6-68.266667 0-93.866666s68.266667-25.6 93.866667 0L512 435.2z"  horiz-adv-x="1024" />

    
    <glyph glyph-name="_shujiantouyou" unicode="&#59004;" d="M588.8 384L358.4 614.4c-25.6 25.6-25.6 59.733333 0 85.333333 25.6 25.6 68.266667 25.6 93.866667 0l273.066666-273.066666c25.6-25.6 25.6-68.266667 0-93.866667L452.266667 68.266667c-25.6-25.6-68.266667-25.6-93.866667 0-25.6 25.6-25.6 68.266667 0 93.866666L588.8 384z"  horiz-adv-x="1024" />

    
    <glyph glyph-name="_shuaxin" unicode="&#59005;" d="M531.692308 171.323077c122.092308 15.753846 216.615385 102.4 216.615384 208.738461 0 74.830769-43.323077 141.784615-118.153846 181.169231-11.815385 7.876923-15.753846 19.692308-7.876923 31.507693s19.692308 15.753846 31.507692 7.876923c86.646154-47.261538 141.784615-129.969231 141.784616-220.553847 0-133.907692-114.215385-240.246154-259.938462-256l3.938462-59.076923-114.215385 78.769231 102.4 98.461539 3.938462-70.892308zM456.861538 592.738462c-122.092308-15.753846-212.676923-106.338462-212.676923-208.738462 0-70.892308 39.384615-133.907692 106.338462-173.292308 11.815385-7.876923 15.753846-19.692308 7.876923-31.507692-7.876923-11.815385-19.692308-15.753846-31.507692-7.876923C248.123077 218.584615 196.923077 297.353846 196.923077 384c0 129.969231 114.215385 236.307692 259.938461 256V699.076923l106.338462-90.584615-106.338462-86.646154V592.738462z"  horiz-adv-x="1024" />

    
    <glyph glyph-name="_Tjinggaotishi" unicode="&#59008;" d="M512 384m-448 0a448 448 0 1 1 896 0 448 448 0 1 1-896 0ZM480 281.6l-12.8 262.4L460.8 640h102.4v-96l-12.8-262.4H480z m32-185.6c-38.4 0-64 32-64 70.4s25.6 70.4 64 70.4 64-32 64-70.4-25.6-70.4-64-70.4z"  horiz-adv-x="1024" />

    
    <glyph glyph-name="_Tchenggongtishi" unicode="&#59009;" d="M512 384m-448 0a448 448 0 1 1 896 0 448 448 0 1 1-896 0ZM467.2 268.8L704 505.6c12.8 12.8 38.4 12.8 51.2 0 12.8-12.8 12.8-38.4 0-51.2L492.8 192c-12.8-12.8-38.4-12.8-51.2 0L268.8 358.4c-12.8 19.2-12.8 38.4 0 57.6 12.8 12.8 38.4 12.8 51.2 0l147.2-147.2z"  horiz-adv-x="1024" />

    
    <glyph glyph-name="_Tyiwentishi" unicode="&#59010;" d="M512 384m-448 0a448 448 0 1 1 896 0 448 448 0 1 1-896 0ZM460.8 288c-19.2 108.8 108.8 134.4 108.8 204.8 0 38.4-25.6 57.6-64 57.6-32 0-64-12.8-89.6-44.8l-57.6 57.6C396.8 608 448 640 518.4 640c89.6 0 153.6-44.8 153.6-134.4 0-108.8-128-121.6-115.2-217.6H460.8z m-32-121.6c0 38.4 32 70.4 70.4 70.4s76.8-25.6 76.8-70.4c0-38.4-32-70.4-70.4-70.4s-76.8 32-76.8 70.4z"  horiz-adv-x="1024" />

    
    <glyph glyph-name="_Txiaoxitishi" unicode="&#59011;" d="M512 384m-448 0a448 448 0 1 1 896 0 448 448 0 1 1-896 0ZM480 281.6l-12.8 262.4L460.8 640h102.4v-96l-12.8-262.4H480z m32-185.6c-38.4 0-64 32-64 70.4s25.6 70.4 64 70.4 64-32 64-70.4-25.6-70.4-64-70.4z"  horiz-adv-x="1024" />

    
    <glyph glyph-name="_Tcuowutishi" unicode="&#59012;" d="M512 384m-448 0a448 448 0 1 1 896 0 448 448 0 1 1-896 0ZM512 435.2l128 128c12.8 12.8 38.4 12.8 51.2 0 12.8-12.8 12.8-38.4 0-51.2l-128-128 128-128c12.8-12.8 12.8-38.4 0-51.2-12.8-12.8-38.4-12.8-51.2 0l-128 128-128-128c-12.8-12.8-38.4-12.8-51.2 0-12.8 12.8-12.8 38.4 0 51.2l128 128-128 128c-12.8 12.8-12.8 38.4 0 51.2 12.8 12.8 38.4 12.8 51.2 0l128-128z"  horiz-adv-x="1024" />

    
    <glyph glyph-name="_yiwentishi" unicode="&#59013;" d="M512 384m-512 0a512 512 0 1 1 1024 0 512 512 0 1 1-1024 0ZM533.333333 85.333333c-25.6 0-46.933333 21.333333-46.933333 42.666667 0 25.6 21.333333 42.666667 46.933333 42.666667s46.933333-21.333333 46.933334-42.666667-21.333333-42.666667-46.933334-42.666667z m81.066667 298.666667c-25.6-25.6-51.2-51.2-51.2-76.8V256c0-17.066667-12.8-29.866667-29.866667-29.866667s-29.866667 12.8-29.866666 29.866667v51.2c0 46.933333 38.4 85.333333 68.266666 115.2 25.6 25.6 51.2 46.933333 51.2 68.266667 0 46.933333-38.4 89.6-89.6 89.6-51.2 0-89.6-38.4-89.6-85.333334 0-17.066667-12.8-29.866667-29.866666-29.866666S384 477.866667 384 494.933333C384 576 452.266667 640 533.333333 640S682.666667 576 682.666667 494.933333c0-46.933333-34.133333-76.8-68.266667-110.933333z"  horiz-adv-x="1024" />

    
    <glyph glyph-name="_jinggaotishi" unicode="&#59014;" d="M512 384m-512 0a512 512 0 1 1 1024 0 512 512 0 1 1-1024 0ZM512 213.333333c-25.6 0-42.666667-17.066667-42.666667-42.666666s17.066667-42.666667 42.666667-42.666667 42.666667 17.066667 42.666667 42.666667-17.066667 42.666667-42.666667 42.666666z m0 85.333334c17.066667 0 34.133333 12.8 34.133333 34.133333V605.866667c0 21.333333-17.066667 34.133333-34.133333 34.133333s-34.133333-12.8-34.133333-34.133333v-277.333334c0-17.066667 17.066667-29.866667 34.133333-29.866666z"  horiz-adv-x="1024" />

    
    <glyph glyph-name="_chenggongtishi" unicode="&#59015;" d="M512 384m-512 0a512 512 0 1 1 1024 0 512 512 0 1 1-1024 0ZM469.333333 260.266667L763.733333 554.666667c12.8 12.8 34.133333 12.8 46.933334 0 12.8-12.8 12.8-34.133333 0-46.933334l-315.733334-315.733333c-12.8-12.8-34.133333-12.8-46.933333 0l-196.266667 196.266667c-12.8 12.8-12.8 34.133333 0 46.933333 12.8 12.8 34.133333 12.8 46.933334 0l170.666666-174.933333z"  horiz-adv-x="1024" />

    
    <glyph glyph-name="_jinggaotishil" unicode="&#59016;" d="M512 384m-512 0a512 512 0 1 1 1024 0 512 512 0 1 1-1024 0ZM512 554.666667c-25.6 0-42.666667 17.066667-42.666667 42.666666s17.066667 42.666667 42.666667 42.666667 42.666667-17.066667 42.666667-42.666667-17.066667-42.666667-42.666667-42.666666z m0-85.333334c17.066667 0 34.133333-12.8 34.133333-34.133333v-277.333333c0-17.066667-12.8-34.133333-34.133333-34.133334s-34.133333 12.8-34.133333 34.133334v277.333333c0 21.333333 17.066667 34.133333 34.133333 34.133333z"  horiz-adv-x="1024" />

    
    <glyph glyph-name="_cuowutishi" unicode="&#59017;" d="M512 384m-512 0a512 512 0 1 1 1024 0 512 512 0 1 1-1024 0ZM512 430.933333L678.4 597.333333c12.8 12.8 34.133333 12.8 46.933333 0 12.8-12.8 12.8-34.133333 0-46.933333L558.933333 384l166.4-166.4c12.8-12.8 12.8-34.133333 0-46.933333-12.8-12.8-34.133333-12.8-46.933333 0L512 337.066667 345.6 170.666667c-12.8-12.8-34.133333-12.8-46.933333 0s-12.8 34.133333 0 46.933333l166.4 166.4-162.133334 166.4c-12.8 12.8-12.8 34.133333 0 46.933333s34.133333 12.8 46.933334 0l162.133333-166.4z"  horiz-adv-x="1024" />

    
    <glyph glyph-name="_kjinggaotishil" unicode="&#59018;" d="M512-85.333333c260.266667 0 469.333333 209.066667 469.333333 469.333333S772.266667 853.333333 512 853.333333 42.666667 644.266667 42.666667 384s209.066667-469.333333 469.333333-469.333333z m0-42.666667C230.4-128 0 102.4 0 384S230.4 896 512 896s512-230.4 512-512-230.4-512-512-512zM512 554.666667c-25.6 0-42.666667 17.066667-42.666667 42.666666s17.066667 42.666667 42.666667 42.666667 42.666667-17.066667 42.666667-42.666667-17.066667-42.666667-42.666667-42.666666z m0-85.333334c17.066667 0 34.133333-12.8 34.133333-34.133333v-277.333333c0-17.066667-12.8-34.133333-34.133333-34.133334s-34.133333 12.8-34.133333 34.133334v277.333333c0 21.333333 17.066667 34.133333 34.133333 34.133333z"  horiz-adv-x="1024" />

    
    <glyph glyph-name="_kyiwentishi" unicode="&#59019;" d="M512-85.333333c260.266667 0 469.333333 209.066667 469.333333 469.333333S772.266667 853.333333 512 853.333333 42.666667 644.266667 42.666667 384s209.066667-469.333333 469.333333-469.333333z m0-42.666667C230.4-128 0 102.4 0 384S230.4 896 512 896s512-230.4 512-512-230.4-512-512-512zM533.333333 85.333333c-25.6 0-46.933333 21.333333-46.933333 42.666667 0 25.6 21.333333 42.666667 46.933333 42.666667s46.933333-21.333333 46.933334-42.666667-21.333333-42.666667-46.933334-42.666667z m81.066667 298.666667c-25.6-25.6-51.2-51.2-51.2-76.8V256c0-17.066667-12.8-29.866667-29.866667-29.866667s-29.866667 12.8-29.866666 29.866667v51.2c0 46.933333 38.4 85.333333 68.266666 115.2 25.6 25.6 51.2 46.933333 51.2 68.266667 0 46.933333-38.4 89.6-89.6 89.6-51.2 0-89.6-38.4-89.6-85.333334 0-17.066667-12.8-29.866667-29.866666-29.866666S384 477.866667 384 494.933333C384 576 452.266667 640 533.333333 640S682.666667 576 682.666667 494.933333c0-46.933333-34.133333-76.8-68.266667-110.933333z"  horiz-adv-x="1024" />

    
    <glyph glyph-name="_kcuowutishi" unicode="&#59020;" d="M512-85.333333c260.266667 0 469.333333 209.066667 469.333333 469.333333S772.266667 853.333333 512 853.333333 42.666667 644.266667 42.666667 384s209.066667-469.333333 469.333333-469.333333z m0-42.666667C230.4-128 0 102.4 0 384S230.4 896 512 896s512-230.4 512-512-230.4-512-512-512zM512 430.933333L678.4 597.333333c12.8 12.8 34.133333 12.8 46.933333 0 12.8-12.8 12.8-34.133333 0-46.933333L558.933333 384l166.4-166.4c12.8-12.8 12.8-34.133333 0-46.933333-12.8-12.8-34.133333-12.8-46.933333 0L512 337.066667 345.6 170.666667c-12.8-12.8-34.133333-12.8-46.933333 0s-12.8 34.133333 0 46.933333l166.4 166.4-162.133334 166.4c-12.8 12.8-12.8 34.133333 0 46.933333s34.133333 12.8 46.933334 0l162.133333-166.4z"  horiz-adv-x="1024" />

    
    <glyph glyph-name="_kjinggaotishi" unicode="&#59021;" d="M512-85.333333c260.266667 0 469.333333 209.066667 469.333333 469.333333S772.266667 853.333333 512 853.333333 42.666667 644.266667 42.666667 384s209.066667-469.333333 469.333333-469.333333z m0-42.666667C230.4-128 0 102.4 0 384S230.4 896 512 896s512-230.4 512-512-230.4-512-512-512zM512 213.333333c-25.6 0-42.666667-17.066667-42.666667-42.666666s17.066667-42.666667 42.666667-42.666667 42.666667 17.066667 42.666667 42.666667-17.066667 42.666667-42.666667 42.666666z m0 85.333334c17.066667 0 34.133333 12.8 34.133333 34.133333V605.866667c0 21.333333-17.066667 34.133333-34.133333 34.133333s-34.133333-12.8-34.133333-34.133333v-277.333334c0-17.066667 17.066667-29.866667 34.133333-29.866666z"  horiz-adv-x="1024" />

    
    <glyph glyph-name="_chenggongtishik" unicode="&#59022;" d="M512-85.333333c260.266667 0 469.333333 209.066667 469.333333 469.333333S772.266667 853.333333 512 853.333333 42.666667 644.266667 42.666667 384s209.066667-469.333333 469.333333-469.333333z m0-42.666667C230.4-128 0 102.4 0 384S230.4 896 512 896s512-230.4 512-512-230.4-512-512-512zM469.333333 260.266667L763.733333 554.666667c12.8 12.8 34.133333 12.8 46.933334 0 12.8-12.8 12.8-34.133333 0-46.933334l-315.733334-315.733333c-12.8-12.8-34.133333-12.8-46.933333 0l-196.266667 196.266667c-12.8 12.8-12.8 34.133333 0 46.933333 12.8 12.8 34.133333 12.8 46.933334 0l170.666666-174.933333z"  horiz-adv-x="1024" />

    
    <glyph glyph-name="_wanchengduigou" unicode="&#59023;" d="M426.666667 213.333333L870.4 657.066667c12.8 12.8 34.133333 12.8 46.933333 0 12.8-12.8 12.8-34.133333 0-46.933334l-469.333333-469.333333c-12.8-12.8-34.133333-12.8-46.933333 0l-256 256c-12.8 12.8-12.8 34.133333 0 46.933333 12.8 12.8 34.133333 12.8 46.933333 0L426.666667 213.333333z"  horiz-adv-x="1024" />

    
    <glyph glyph-name="_cuowu" unicode="&#59024;" d="M512 430.933333l256 256c12.8 12.8 34.133333 12.8 46.933333 0s12.8-34.133333 0-46.933333l-256-256 256-256c12.8-12.8 12.8-34.133333 0-46.933333-12.8-12.8-34.133333-12.8-46.933333 0l-256 256-256-256c-12.8-12.8-34.133333-12.8-46.933333 0-12.8 12.8-12.8 34.133333 0 46.933333l256 256-256 256c-12.8 12.8-12.8 34.133333 0 46.933333s34.133333 12.8 46.933333 0l256-256z"  horiz-adv-x="1024" />

    
    <glyph glyph-name="_kyiwentishi1" unicode="&#59025;" d="M512-14.222222c219.022222 0 398.222222 179.2 398.222222 398.222222S731.022222 782.222222 512 782.222222 113.777778 603.022222 113.777778 384s179.2-398.222222 398.222222-398.222222z m0-28.444445C275.911111-42.666667 85.333333 147.911111 85.333333 384S275.911111 810.666667 512 810.666667s426.666667-190.577778 426.666667-426.666667-190.577778-426.666667-426.666667-426.666667zM512 184.888889c-19.911111 0-34.133333 14.222222-34.133333 31.288889 0 17.066667 14.222222 31.288889 34.133333 31.288889s34.133333-14.222222 34.133333-31.288889c0-17.066667-14.222222-31.288889-34.133333-31.288889z m62.577778 213.333333c-19.911111-17.066667-39.822222-36.977778-39.822222-54.044444v-34.133334c0-11.377778-11.377778-19.911111-22.755556-19.911111s-22.755556 8.533333-22.755556 19.911111v34.133334c0 34.133333 28.444444 59.733333 54.044445 82.488889 17.066667 17.066667 36.977778 34.133333 36.977778 48.355555 0 34.133333-31.288889 62.577778-68.266667 62.577778-36.977778 0-68.266667-28.444444-68.266667-62.577778 0-11.377778-11.377778-19.911111-22.755555-19.911111s-22.755556 8.533333-22.755556 19.911111c0 56.888889 51.2 105.244444 113.777778 105.244445s113.777778-48.355556 113.777778-105.244445c0-28.444444-25.6-51.2-51.2-76.8z"  horiz-adv-x="1024" />

    
    <glyph glyph-name="_kchenggongtishi" unicode="&#59026;" d="M512-14.222222c219.022222 0 398.222222 179.2 398.222222 398.222222S731.022222 782.222222 512 782.222222 113.777778 603.022222 113.777778 384s179.2-398.222222 398.222222-398.222222z m0-28.444445C275.911111-42.666667 85.333333 147.911111 85.333333 384S275.911111 810.666667 512 810.666667s426.666667-190.577778 426.666667-426.666667-190.577778-426.666667-426.666667-426.666667zM483.555556 244.622222l256 256c8.533333 8.533333 22.755556 8.533333 31.288888 0 8.533333-8.533333 8.533333-22.755556 0-31.288889l-270.222222-270.222222c-8.533333-8.533333-22.755556-8.533333-31.288889 0l-170.666666 170.666667c-8.533333 8.533333-8.533333 22.755556 0 31.288889 8.533333 8.533333 22.755556 8.533333 31.288889 0l153.6-156.444445z"  horiz-adv-x="1024" />

    
    <glyph glyph-name="_kcuowutishi1" unicode="&#59027;" d="M512-14.222222c219.022222 0 398.222222 179.2 398.222222 398.222222S731.022222 782.222222 512 782.222222 113.777778 603.022222 113.777778 384s179.2-398.222222 398.222222-398.222222z m0-28.444445C275.911111-42.666667 85.333333 147.911111 85.333333 384S275.911111 810.666667 512 810.666667s426.666667-190.577778 426.666667-426.666667-190.577778-426.666667-426.666667-426.666667zM512 401.066667l150.755556 150.755555c8.533333 8.533333 22.755556 8.533333 31.288888 0 8.533333-8.533333 8.533333-22.755556 0-31.288889l-150.755555-150.755555 150.755555-150.755556c8.533333-8.533333 8.533333-22.755556 0-31.288889-8.533333-8.533333-22.755556-8.533333-31.288888 0L512 338.488889l-150.755556-150.755556c-8.533333-8.533333-22.755556-8.533333-31.288888 0-8.533333 8.533333-8.533333 22.755556 0 31.288889l150.755555 150.755556-150.755555 150.755555c-8.533333 8.533333-8.533333 22.755556 0 31.288889 8.533333 8.533333 22.755556 8.533333 31.288888 0l150.755556-150.755555z"  horiz-adv-x="1024" />

    
    <glyph glyph-name="_kjinggaotishil1" unicode="&#59028;" d="M512-14.222222c219.022222 0 398.222222 179.2 398.222222 398.222222S731.022222 782.222222 512 782.222222 113.777778 603.022222 113.777778 384s179.2-398.222222 398.222222-398.222222z m0-28.444445C275.911111-42.666667 85.333333 147.911111 85.333333 384S275.911111 810.666667 512 810.666667s426.666667-190.577778 426.666667-426.666667-190.577778-426.666667-426.666667-426.666667zM512 554.666667c-17.066667 0-28.444444 11.377778-28.444444 28.444444s11.377778 28.444444 28.444444 28.444445 28.444444-11.377778 28.444444-28.444445-11.377778-28.444444-28.444444-28.444444z m0-56.888889c11.377778 0 22.755556-8.533333 22.755556-22.755556v-298.666666c0-11.377778-8.533333-22.755556-22.755556-22.755556s-22.755556 8.533333-22.755556 22.755556V475.022222c0 14.222222 11.377778 22.755556 22.755556 22.755556z"  horiz-adv-x="1024" />

    
    <glyph glyph-name="_kjinggaotishi1" unicode="&#59029;" d="M512-14.222222c219.022222 0 398.222222 179.2 398.222222 398.222222S731.022222 782.222222 512 782.222222 113.777778 603.022222 113.777778 384s179.2-398.222222 398.222222-398.222222z m0-28.444445C275.911111-42.666667 85.333333 147.911111 85.333333 384S275.911111 810.666667 512 810.666667s426.666667-190.577778 426.666667-426.666667-190.577778-426.666667-426.666667-426.666667zM512 213.333333c-17.066667 0-28.444444-11.377778-28.444444-28.444444s11.377778-28.444444 28.444444-28.444445 28.444444 11.377778 28.444444 28.444445-11.377778 28.444444-28.444444 28.444444z m0 56.888889c11.377778 0 22.755556 8.533333 22.755556 22.755556V588.8c0 11.377778-8.533333 22.755556-22.755556 22.755556s-22.755556-8.533333-22.755556-22.755556v-298.666667c0-11.377778 11.377778-19.911111 22.755556-19.911111z"  horiz-adv-x="1024" />

    
    <glyph glyph-name="_jianhang" unicode="&#59006;" d="M136.533333 435.2h750.933334a51.2 51.2 0 0 0 0-102.4H136.533333a51.2 51.2 0 1 0 0 102.4z"  horiz-adv-x="1024" />

    
    <glyph glyph-name="_zenghang" unicode="&#59007;" d="M448 409.6V733.866667a51.2 51.2 0 0 0 102.4 0v-324.266667h324.266667a51.2 51.2 0 0 0 0-102.4h-324.266667v-324.266667a51.2 51.2 0 1 0-102.4 0V307.2h-324.266667a51.2 51.2 0 1 0 0 102.4z"  horiz-adv-x="1024" />

    
    <glyph glyph-name="_liuchengdangqian" unicode="&#59030;" d="M512 384m-512 0a512 512 0 1 1 1024 0 512 512 0 1 1-1024 0ZM512 384m-448 0a448 448 0 1 1 896 0 448 448 0 1 1-896 0ZM512 384m-192 0a192 192 0 1 1 384 0 192 192 0 1 1-384 0Z"  horiz-adv-x="1024" />

    
    <glyph glyph-name="_liucheng" unicode="&#59031;" d="M512 384m-320 0a320 320 0 1 1 640 0 320 320 0 1 1-640 0ZM512 64c179.2 0 320 140.8 320 320s-140.8 320-320 320-320-140.8-320-320 140.8-320 320-320z m0 128c-108.8 0-192 83.2-192 192s83.2 192 192 192 192-83.2 192-192-83.2-192-192-192z"  horiz-adv-x="1024" />

    
    <glyph glyph-name="_shurukuanggengduo" unicode="&#59072;" d="M109.714286 274.285714C51.2 274.285714 0 325.48571400000003 0 384s51.2 109.714286 109.714286 109.714286S219.428571 442.514286 219.428571 384s-51.2-109.714286-109.714285-109.714286zM512 237.71428600000002c-80.457143 0-146.285714 65.828571-146.285714 146.285714s65.828571 146.285714 146.285714 146.285714 146.285714-65.828571 146.285714-146.285714-65.828571-146.285714-146.285714-146.285714z m402.285714 36.571428c-58.514286 0-109.714286 51.2-109.714285 109.714286s51.2 109.714286 109.714285 109.714286S1024 442.514286 1024 384s-51.2-109.714286-109.714286-109.714286z"  horiz-adv-x="1024" />

    
    <glyph glyph-name="_shu-wenjianjia" unicode="&#59032;" d="M885.028571 457.142857V566.857143c0 7.314286 0 7.314286-7.314285 7.314286H402.285714l-73.142857 109.714285H146.285714c-7.314286 0-7.314286 0-7.314285-7.314285v-219.428572h746.057142z m0-65.828571H138.971429V18.285714c0-7.314286 0-7.314286 7.314285-7.314285h731.428572c7.314286 0 7.314286 0 7.314285 7.314285V391.314286zM146.285714 749.714286h182.857143c21.942857 0 43.885714-14.628571 58.514286-29.257143L438.857143 640h438.857143c43.885714 0 73.142857-29.257143 73.142857-73.142857V18.285714c0-43.885714-29.257143-73.142857-73.142857-73.142857H146.285714c-43.885714 0-73.142857 29.257143-73.142857 73.142857V676.571429c0 43.885714 29.257143 73.142857 73.142857 73.142857z m394.971429 0h299.885714c21.942857 0 36.571429-14.628571 36.571429-36.571429s-14.628571-36.571429-29.257143-36.571428H541.257143c-14.628571 7.314286-29.257143 21.942857-29.257143 36.571428s14.628571 36.571429 29.257143 36.571429z"  horiz-adv-x="1024" />

    
    <glyph glyph-name="_danchugengduo" unicode="&#59034;" d="M438.857143 822.857143h438.857143c43.885714 0 73.142857-29.257143 73.142857-73.142857v-438.857143c0-43.885714-29.257143-73.142857-73.142857-73.142857H438.857143c-43.885714 0-73.142857 29.257143-73.142857 73.142857V749.714286c0 43.885714 29.257143 73.142857 73.142857 73.142857z m0-73.142857v-438.857143h438.857143V749.714286H438.857143z m117.028571-102.4h219.428572c21.942857 0 36.571429-14.628571 36.571428-36.571429s-14.628571-36.571429-36.571428-36.571428h-219.428572c-21.942857 0-36.571429 14.628571-36.571428 36.571428s14.628571 36.571429 36.571428 36.571429z m0-146.285715h219.428572c21.942857 0 36.571429-14.628571 36.571428-36.571428s-14.628571-36.571429-36.571428-36.571429h-219.428572c-21.942857 0-36.571429 14.628571-36.571428 36.571429s14.628571 36.571429 36.571428 36.571428zM804.571429 179.2c0 21.942857 14.628571 36.571429 36.571428 36.571429s36.571429-14.628571 36.571429-36.571429v-131.657143c0-58.514286-43.885714-102.4-102.4-102.4H175.542857c-58.514286 0-102.4 43.885714-102.4 102.4V647.314286C73.142857 705.828571 117.028571 749.714286 175.542857 749.714286h124.342857c21.942857 0 36.571429-14.628571 36.571429-36.571429s-14.628571-36.571429-36.571429-36.571428H175.542857c-14.628571 0-29.257143-14.628571-29.257143-29.257143v-592.457143c0-21.942857 14.628571-36.571429 29.257143-36.571429h599.771429c14.628571 0 29.257143 14.628571 29.257143 29.257143V179.2z"  horiz-adv-x="1024" />

    
    <glyph glyph-name="_shu-biao" unicode="&#59033;" d="M138.971429 683.885714h746.057142V530.285714H138.971429zM885.028571 171.885714H431.542857v-160.914285H877.714286c7.314286 0 7.314286 0 7.314285 7.314285V171.885714z m0 65.828572V464.457143H431.542857V237.714286h453.485714z m-746.057142-65.828572V18.285714c0-7.314286 0-7.314286 7.314285-7.314285h219.428572V171.885714H138.971429z m0 65.828572H365.714286V464.457143H138.971429V237.714286zM365.714286 530.285714H885.028571V676.571429c0 7.314286 0 7.314286-7.314285 7.314285H146.285714c-7.314286 0-7.314286 0-7.314285-7.314285v-146.285715H365.714286zM146.285714 749.714286h731.428572c43.885714 0 73.142857-29.257143 73.142857-73.142857v-658.285715c0-43.885714-29.257143-73.142857-73.142857-73.142857H146.285714c-43.885714 0-73.142857 29.257143-73.142857 73.142857V676.571429c0 43.885714 29.257143 73.142857 73.142857 73.142857z"  horiz-adv-x="1024" />

    
    <glyph glyph-name="_liuchengzaixiangoutong" unicode="&#59035;" d="M896 768H204.8c-38.4 0-70.4-32-70.4-70.4v-486.4c0-38.4 32-70.4 70.4-70.4h192l128-128c12.8-6.4 19.2-12.8 25.6-12.8 6.4 0 19.2 0 25.6 6.4l128 128h192c38.4 0 70.4 32 70.4 70.4V697.6c0 38.4-32 70.4-70.4 70.4z m6.4-556.8c0-6.4 0-6.4-6.4-6.4h-217.6l-19.2-19.2-108.8-108.8-108.8 108.8-19.2 19.2H204.8c-6.4 0-6.4 0-6.4 6.4V697.6c0 6.4 6.4 6.4 6.4 6.4H896c6.4 0 6.4 0 6.4-6.4v-486.4zM358.4 499.2c-25.6 0-44.8-19.2-44.8-44.8s19.2-44.8 44.8-44.8 44.8 19.2 44.8 44.8-19.2 44.8-44.8 44.8zM544 499.2c-25.6 0-44.8-19.2-44.8-44.8s19.2-44.8 44.8-44.8 44.8 19.2 44.8 44.8-19.2 44.8-44.8 44.8zM729.6 499.2c-25.6 0-44.8-19.2-44.8-44.8s19.2-44.8 44.8-44.8 44.8 19.2 44.8 44.8-19.2 44.8-44.8 44.8z"  horiz-adv-x="1024" />

    
    <glyph glyph-name="_ewmbohuiketijiao" unicode="&#59036;" d="M504.685714 427.885714h263.314286c124.342857 0 226.742857-102.4 226.742857-226.742857s-102.4-226.742857-226.742857-226.742857H585.142857c-21.942857 0-43.885714 21.942857-43.885714 43.885714s21.942857 43.885714 43.885714 43.885715h182.857143c73.142857 0 138.971429 65.828571 138.971429 138.971428s-65.828571 138.971429-138.971429 138.971429H504.685714l73.142857-73.142857c14.628571-14.628571 14.628571-43.885714 0-58.514286-14.628571-14.628571-43.885714-14.628571-58.514285 0l-146.285715 138.971428c-21.942857 21.942857-21.942857 51.2 0 73.142858L512 559.542857c14.628571 14.628571 43.885714 14.628571 58.514286 0 14.628571-14.628571 14.628571-43.885714 0-58.514286l-65.828572-73.142857zM760.685714 530.285714V676.571429c0 14.628571-14.628571 29.257143-29.257143 29.257142H146.285714c-14.628571 0-29.257143-14.628571-29.257143-29.257142v-585.142858c0-14.628571 14.628571-29.257143 29.257143-29.257142h219.428572c21.942857 0 43.885714-21.942857 43.885714-43.885715s-21.942857-43.885714-43.885714-43.885714H146.285714c-65.828571 0-117.028571 51.2-117.028571 117.028571V676.571429c0 65.828571 51.2 117.028571 117.028571 117.028571h585.142857c65.828571 0 117.028571-51.2 117.028572-117.028571v-146.285715c0-21.942857-21.942857-43.885714-43.885714-43.885714s-43.885714 21.942857-43.885715 43.885714z"  horiz-adv-x="1024" />

    
    <glyph glyph-name="_ewmshenpitongguo" unicode="&#59037;" d="M299.885714 530.285714h351.085715c21.942857 0 43.885714-21.942857 43.885714-43.885714s-21.942857-43.885714-43.885714-43.885714H299.885714c-21.942857 0-43.885714 21.942857-43.885714 43.885714s21.942857 43.885714 43.885714 43.885714z m0-219.428571h204.8c21.942857 0 43.885714-21.942857 43.885715-43.885714s-21.942857-43.885714-43.885715-43.885715H299.885714c-21.942857 0-43.885714 21.942857-43.885714 43.885715s21.942857 43.885714 43.885714 43.885714z m497.371429 146.285714V676.571429c0 14.628571-14.628571 29.257143-29.257143 29.257142h-585.142857c-14.628571 0-29.257143-14.628571-29.257143-29.257142v-585.142858c0-14.628571 14.628571-29.257143 29.257143-29.257142h219.428571c21.942857 0 43.885714-21.942857 43.885715-43.885715s-21.942857-43.885714-43.885715-43.885714h-219.428571c-65.828571 0-117.028571 51.2-117.028572 117.028571V676.571429c0 65.828571 51.2 117.028571 117.028572 117.028571h585.142857c65.828571 0 117.028571-51.2 117.028571-117.028571v-219.428572c0-21.942857-21.942857-43.885714-43.885714-43.885714s-43.885714 21.942857-43.885714 43.885714z m-219.428572-329.142857l109.714286-80.457143 190.171429 292.571429c14.628571 21.942857 43.885714 29.257143 58.514285 14.628571 21.942857-14.628571 29.257143-43.885714 14.628572-58.514286l-212.114286-314.514285c-21.942857-36.571429-58.514286-43.885714-80.457143-29.257143l-131.657143 102.4c-21.942857 14.628571-21.942857 43.885714-7.314285 58.514286s36.571429 29.257143 58.514285 14.628571z"  horiz-adv-x="1024" />

    
    <glyph glyph-name="_ewmyiqueren-zanbutong" unicode="&#59038;" d="M629.028571 530.285714c21.942857 0 43.885714-21.942857 43.885715-43.885714v-204.8c0-21.942857-21.942857-43.885714-43.885715-43.885714S585.142857 259.657143 585.142857 281.6V486.4c0 21.942857 21.942857 43.885714 43.885714 43.885714z m-219.428571 0c21.942857 0 43.885714-21.942857 43.885714-43.885714v-204.8c0-21.942857-21.942857-43.885714-43.885714-43.885714S365.714286 259.657143 365.714286 281.6V486.4c0 21.942857 21.942857 43.885714 43.885714 43.885714z m424.228571-219.428571V676.571429c0 14.628571-14.628571 29.257143-29.257142 29.257142H219.428571c-14.628571 0-29.257143-14.628571-29.257142-29.257142v-585.142858c0-14.628571 14.628571-29.257143 29.257142-29.257142h658.285715c21.942857 0 43.885714-21.942857 43.885714-43.885715s-21.942857-43.885714-43.885714-43.885714H219.428571c-65.828571 0-117.028571 51.2-117.028571 117.028571V676.571429c0 65.828571 51.2 117.028571 117.028571 117.028571h585.142858c65.828571 0 117.028571-51.2 117.028571-117.028571v-365.714286c0-21.942857-21.942857-43.885714-43.885714-43.885714s-43.885714 21.942857-43.885715 43.885714zM731.428571 559.542857c-21.942857 0-43.885714 21.942857-43.885714 43.885714s21.942857 43.885714 43.885714 43.885715 43.885714-21.942857 43.885715-43.885715-21.942857-43.885714-43.885715-43.885714z"  horiz-adv-x="1024" />

    
    <glyph glyph-name="_ewmshenpizhong" unicode="&#59039;" d="M336.457143 530.285714h351.085714c21.942857 0 43.885714-21.942857 43.885714-43.885714s-21.942857-43.885714-43.885714-43.885714H336.457143c-21.942857 0-43.885714 21.942857-43.885714 43.885714s21.942857 43.885714 43.885714 43.885714z m0-219.428571h204.8c21.942857 0 43.885714-21.942857 43.885714-43.885714s-21.942857-43.885714-43.885714-43.885715H336.457143c-21.942857 0-43.885714 21.942857-43.885714 43.885715s21.942857 43.885714 43.885714 43.885714z m497.371428 0V676.571429c0 14.628571-14.628571 29.257143-29.257142 29.257142H219.428571c-14.628571 0-29.257143-14.628571-29.257142-29.257142v-585.142858c0-14.628571 14.628571-29.257143 29.257142-29.257142h219.428572c21.942857 0 43.885714-21.942857 43.885714-43.885715s-21.942857-43.885714-43.885714-43.885714H219.428571c-65.828571 0-117.028571 51.2-117.028571 117.028571V676.571429c0 65.828571 51.2 117.028571 117.028571 117.028571h585.142858c65.828571 0 117.028571-51.2 117.028571-117.028571v-365.714286c0-21.942857-21.942857-43.885714-43.885714-43.885714s-43.885714 21.942857-43.885715 43.885714zM585.142857-25.6c-21.942857 0-43.885714 21.942857-43.885714 43.885714s21.942857 43.885714 43.885714 43.885715 43.885714-21.942857 43.885714-43.885715-21.942857-43.885714-43.885714-43.885714z m146.285714 0c-21.942857 0-43.885714 21.942857-43.885714 43.885714s21.942857 43.885714 43.885714 43.885715 43.885714-21.942857 43.885715-43.885715-21.942857-43.885714-43.885715-43.885714z m146.285715 0c-21.942857 0-43.885714 21.942857-43.885715 43.885714s21.942857 43.885714 43.885715 43.885715 43.885714-21.942857 43.885714-43.885715-21.942857-43.885714-43.885714-43.885714z"  horiz-adv-x="1024" />

    
    <glyph glyph-name="_ewmbohuibuketijiao" unicode="&#59040;" d="M490.057143 457.142857h263.314286c124.342857 0 226.742857-102.4 226.742857-226.742857s-102.4-226.742857-226.742857-226.742857c-21.942857 0-43.885714 21.942857-43.885715 43.885714s14.628571 43.885714 36.571429 43.885714c73.142857 0 138.971429 65.828571 138.971428 138.971429s-65.828571 138.971429-138.971428 138.971429H490.057143l73.142857-73.142858c14.628571-14.628571 14.628571-43.885714 0-58.514285-21.942857-14.628571-43.885714-14.628571-65.828571 0L358.4 376.685714c-21.942857 21.942857-21.942857 51.2 0 73.142857l138.971429 138.971429c14.628571 14.628571 43.885714 14.628571 58.514285 0 14.628571-14.628571 14.628571-43.885714 0-58.514286l-65.828571-73.142857z m285.257143 102.4v146.285714c0 14.628571-14.628571 29.257143-29.257143 29.257143h-585.142857c-14.628571 0-29.257143-14.628571-29.257143-29.257143v-585.142857c0-14.628571 14.628571-29.257143 29.257143-29.257143h219.428571c21.942857 0 43.885714-21.942857 43.885714-43.885714s-21.942857-43.885714-43.885714-43.885714h-219.428571c-65.828571 0-117.028571 51.2-117.028572 117.028571v585.142857c0 65.828571 58.514286 117.028571 117.028572 117.028572h585.142857c65.828571 0 117.028571-51.2 117.028571-117.028572v-146.285714c0-21.942857-21.942857-43.885714-43.885714-43.885714s-43.885714 21.942857-43.885714 43.885714z m-146.285715-475.428571l65.828572-65.828572c14.628571-14.628571 14.628571-43.885714 0-58.514285s-43.885714-14.628571-58.514286 0l-65.828571 65.828571-65.828572-65.828571c-14.628571-14.628571-43.885714-14.628571-58.514285 0s-29.257143 43.885714-7.314286 58.514285l65.828571 65.828572-65.828571 65.828571c-21.942857 21.942857-21.942857 51.2 0 65.828572s43.885714 14.628571 58.514286 0l65.828571-65.828572 65.828571 65.828572c14.628571 14.628571 43.885714 14.628571 58.514286 0s14.628571-43.885714 0-58.514286l-58.514286-73.142857z"  horiz-adv-x="1024" />

    
    <glyph glyph-name="_ewmyifeizhi" unicode="&#59041;" d="M804.571429 530.285714V676.571429c0 14.628571-14.628571 29.257143-29.257143 29.257142h-585.142857c-14.628571 0-29.257143-14.628571-29.257143-29.257142v-585.142858c0-14.628571 14.628571-29.257143 29.257143-29.257142h219.428571c21.942857 0 43.885714-21.942857 43.885714-43.885715s-14.628571-43.885714-43.885714-43.885714h-219.428571c-58.514286 0-117.028571 51.2-117.028572 117.028571V676.571429c0 65.828571 51.2 117.028571 117.028572 117.028571h585.142857c65.828571 0 117.028571-51.2 117.028571-117.028571v-146.285715c0-21.942857-21.942857-43.885714-43.885714-43.885714S804.571429 508.342857 804.571429 530.285714z m7.314285-343.771428l117.028572-117.028572c14.628571-14.628571 14.628571-43.885714 0-58.514285s-43.885714-14.628571-58.514286 0l-117.028571 117.028571-117.028572-117.028571c-14.628571-14.628571-43.885714-14.628571-58.514286 0-14.628571 14.628571-14.628571 43.885714 0 58.514285l117.028572 117.028572L570.514286 310.857143c-14.628571 14.628571-14.628571 43.885714 0 58.514286 14.628571 14.628571 43.885714 14.628571 58.514285 0l117.028572-117.028572 117.028571 117.028572c14.628571 14.628571 43.885714 14.628571 58.514286 0s14.628571-43.885714 0-58.514286l-109.714286-124.342857z"  horiz-adv-x="1024" />

    
    <glyph glyph-name="_ewmyitijiao" unicode="&#59042;" d="M811.885714 384c0 21.942857 21.942857 43.885714 43.885715 43.885714s43.885714-21.942857 43.885714-43.885714v-292.571429c0-65.828571-51.2-117.028571-117.028572-117.028571h-585.142857c-65.828571 0-117.028571 51.2-117.028571 117.028571V676.571429c0 65.828571 51.2 117.028571 117.028571 117.028571h256c21.942857 0 43.885714-21.942857 43.885715-43.885714s-21.942857-43.885714-43.885715-43.885715H197.485714c-14.628571 0-29.257143-14.628571-29.257143-29.257142v-585.142858c0-14.628571 14.628571-29.257143 29.257143-29.257142h585.142857c14.628571 0 29.257143 14.628571 29.257143 29.257142V384z m-256-43.885714l336.457143 438.857143c14.628571 21.942857 43.885714 21.942857 58.514286 7.314285s21.942857-43.885714 7.314286-58.514285L607.085714 259.657143c-21.942857-29.257143-58.514286-29.257143-80.457143-7.314286L314.514286 420.571429c-14.628571 21.942857-21.942857 43.885714-7.314286 65.828571 14.628571 21.942857 43.885714 21.942857 58.514286 7.314286l190.171428-153.6z"  horiz-adv-x="1024" />

    
    <glyph glyph-name="_gongshibianji" unicode="&#59043;" d="M138.971429 859.428571h753.371428c51.2 0 102.4-43.885714 102.4-102.4v-753.371428c0-51.2-43.885714-102.4-102.4-102.4H138.971429c-51.2 0-102.4 43.885714-102.4 102.4V757.028571c0 58.514286 43.885714 102.4 102.4 102.4z m0-73.142857c-14.628571 0-29.257143-14.628571-29.257143-29.257143v-753.371428c0-14.628571 14.628571-29.257143 29.257143-29.257143h753.371428c14.628571 0 29.257143 14.628571 29.257143 29.257143V757.028571c0 14.628571-14.628571 29.257143-29.257143 29.257143H138.971429zM731.428571 413.257143l-43.885714-51.2v-7.314286l36.571429-73.142857 7.314285-7.314286h21.942858s7.314286 0 7.314285-7.314285v-58.514286s0-7.314286-7.314285-7.314286h-51.2s-7.314286 0-7.314286 7.314286l-51.2 95.085714h-7.314286L548.571429 208.457143l-7.314286-7.314286h-58.514286s-7.314286 0-7.314286 7.314286v58.514286s0 7.314286 7.314286 7.314285H541.257143l65.828571 73.142857v14.628572L585.142857 413.257143l-7.314286 7.314286H490.057143s-7.314286 0-7.314286 7.314285v58.514286s0 7.314286 7.314286 7.314286h124.342857s7.314286 0 7.314286-7.314286l36.571428-65.828571h7.314286l58.514286 65.828571 7.314285 7.314286h58.514286s7.314286 0 7.314286-7.314286v-58.514286s0-7.314286-7.314286-7.314285h-51.2s0-7.314286-7.314286-7.314286zM431.542857 640c65.828571 58.514286 146.285714 29.257143 182.857143 21.942857V603.428571c-29.257143 7.314286-87.771429 21.942857-124.342857-7.314285-14.628571-7.314286-29.257143-21.942857-36.571429-36.571429l-14.628571-65.828571h65.828571s7.314286 0 7.314286-7.314286v-58.514286s0-7.314286-7.314286-7.314285H416.914286l-51.2-219.428572c-7.314286-36.571429-14.628571-65.828571-36.571429-87.771428-14.628571-14.628571-43.885714-21.942857-73.142857-21.942858H219.428571v73.142858h36.571429s29.257143-7.314286 36.571429 36.571428l51.2 219.428572H263.314286s-7.314286 0-7.314286 7.314285v58.514286s0 7.314286 7.314286 7.314286H365.714286l14.628571 73.142857c14.628571 36.571429 36.571429 58.514286 51.2 73.142857z"  horiz-adv-x="1024" />

    
    <glyph glyph-name="_liucheng-huiqian-wancheng" unicode="&#59045;" d="M512 384m-512 0a512 512 0 1 1 1024 0 512 512 0 1 1-1024 0ZM512-128c281.6 0 512 230.4 512 512S793.6 896 512 896 0 665.6 0 384s230.4-512 512-512z m0 51.2c-256 0-460.8 204.8-460.8 460.8s204.8 460.8 460.8 460.8 460.8-204.8 460.8-460.8-204.8-460.8-460.8-460.8zM680.96 414.72c20.48 25.6 35.84 56.32 35.84 92.16 0 46.08-76.8 97.28-66.56 97.28 40.96 10.24 97.28-46.08 97.28-112.64s-56.32-117.76-66.56-122.88c66.56-15.36 122.88-76.8 138.24-158.72 0-20.48-5.12-35.84-20.48-35.84h-20.48c0 112.64-66.56 153.6-138.24 194.56 10.24 15.36 35.84 30.72 40.96 46.08z m-337.92 0c5.12-15.36 30.72-30.72 40.96-40.96-71.68-40.96-143.36-87.04-143.36-194.56h-20.48c-15.36 0-15.36 15.36-15.36 35.84 10.24 81.92 66.56 138.24 138.24 158.72-10.24 0-66.56 61.44-66.56 122.88s51.2 117.76 92.16 112.64c10.24-5.12-61.44-51.2-61.44-97.28 5.12-40.96 15.36-71.68 35.84-97.28z m220.16-40.96c102.4-25.6 153.6-112.64 168.96-209.92 0-20.48-10.24-35.84-25.6-35.84H322.56c-15.36 0-30.72 15.36-25.6 35.84 10.24 102.4 81.92 184.32 168.96 209.92-30.72 5.12-76.8 40.96-76.8 122.88S435.2 640 512 640s133.12-61.44 133.12-148.48-51.2-112.64-81.92-117.76z"  horiz-adv-x="1024" />

    
    <glyph glyph-name="_liucheng-huiqian-bohui" unicode="&#59047;" d="M512 384m-512 0a512 512 0 1 1 1024 0 512 512 0 1 1-1024 0ZM512-128c281.6 0 512 230.4 512 512S793.6 896 512 896 0 665.6 0 384s230.4-512 512-512z m0 51.2c-256 0-460.8 204.8-460.8 460.8s204.8 460.8 460.8 460.8 460.8-204.8 460.8-460.8-204.8-460.8-460.8-460.8zM680.96 414.72c20.48 25.6 35.84 56.32 35.84 92.16 0 46.08-76.8 97.28-66.56 97.28 40.96 10.24 97.28-46.08 97.28-112.64s-56.32-117.76-66.56-122.88c66.56-15.36 122.88-76.8 138.24-158.72 0-20.48-5.12-35.84-20.48-35.84h-20.48c0 112.64-66.56 153.6-138.24 194.56 10.24 15.36 35.84 30.72 40.96 46.08z m-337.92 0c5.12-15.36 30.72-30.72 40.96-40.96-71.68-40.96-143.36-87.04-143.36-194.56h-20.48c-15.36 0-15.36 15.36-15.36 35.84 10.24 81.92 66.56 138.24 138.24 158.72-10.24 0-66.56 61.44-66.56 122.88s51.2 117.76 92.16 112.64c10.24-5.12-61.44-51.2-61.44-97.28 5.12-40.96 15.36-71.68 35.84-97.28z m220.16-40.96c102.4-25.6 153.6-112.64 168.96-209.92 0-20.48-10.24-35.84-25.6-35.84H322.56c-15.36 0-30.72 15.36-25.6 35.84 10.24 102.4 81.92 184.32 168.96 209.92-30.72 5.12-76.8 40.96-76.8 122.88S435.2 640 512 640s133.12-61.44 133.12-148.48-51.2-112.64-81.92-117.76z"  horiz-adv-x="1024" />

    
    <glyph glyph-name="_liucheng-huiqian-dangqian" unicode="&#59048;" d="M512 384m-512 0a512 512 0 1 1 1024 0 512 512 0 1 1-1024 0ZM512-128c281.6 0 512 230.4 512 512S793.6 896 512 896 0 665.6 0 384s230.4-512 512-512z m0 51.2c-256 0-460.8 204.8-460.8 460.8s204.8 460.8 460.8 460.8 460.8-204.8 460.8-460.8-204.8-460.8-460.8-460.8zM680.96 414.72c20.48 25.6 35.84 56.32 35.84 92.16 0 46.08-76.8 97.28-66.56 97.28 40.96 10.24 97.28-46.08 97.28-112.64s-56.32-117.76-66.56-122.88c66.56-15.36 122.88-76.8 138.24-158.72 0-20.48-5.12-35.84-20.48-35.84h-20.48c0 112.64-66.56 153.6-138.24 194.56 10.24 15.36 35.84 30.72 40.96 46.08z m-337.92 0c5.12-15.36 30.72-30.72 40.96-40.96-71.68-40.96-143.36-87.04-143.36-194.56h-20.48c-15.36 0-15.36 15.36-15.36 35.84 10.24 81.92 66.56 138.24 138.24 158.72-10.24 0-66.56 61.44-66.56 122.88s51.2 117.76 92.16 112.64c10.24-5.12-61.44-51.2-61.44-97.28 5.12-40.96 15.36-71.68 35.84-97.28z m220.16-40.96c102.4-25.6 153.6-112.64 168.96-209.92 0-20.48-10.24-35.84-25.6-35.84H322.56c-15.36 0-30.72 15.36-25.6 35.84 10.24 102.4 81.92 184.32 168.96 209.92-30.72 5.12-76.8 40.96-76.8 122.88S435.2 640 512 640s133.12-61.44 133.12-148.48-51.2-112.64-81.92-117.76z"  horiz-adv-x="1024" />

    
    <glyph glyph-name="_liucheng-huiqian-daishenpi" unicode="&#59044;" d="M469.333333 426.666667m-469.333333 0a469.333333 469.333333 0 1 1 938.666667 0 469.333333 469.333333 0 1 1-938.666667 0ZM469.333333 426.666667m-298.666666 0a298.666667 298.666667 0 1 1 597.333333 0 298.666667 298.666667 0 1 1-597.333333 0Z"  horiz-adv-x="1024" />

    
    <glyph glyph-name="_liucheng-huiqian-yishenpi" unicode="&#59046;" d="M469.333333 426.666667m-469.333333 0a469.333333 469.333333 0 1 1 938.666667 0 469.333333 469.333333 0 1 1-938.666667 0ZM469.333333 426.666667m-298.666666 0a298.666667 298.666667 0 1 1 597.333333 0 298.666667 298.666667 0 1 1-597.333333 0Z"  horiz-adv-x="1024" />

    
    <glyph glyph-name="_gsdagang" unicode="&#59051;" d="M277.333333 682.666667h469.333334c34.133333 0 64-29.866667 64-64v-469.333334c0-34.133333-29.866667-64-64-64h-469.333334c-34.133333 0-64 29.866667-64 64v469.333334C213.333333 652.8 243.2 682.666667 277.333333 682.666667z m0-42.666667c-12.8 0-21.333333-8.533333-21.333333-21.333333v-469.333334c0-12.8 8.533333-21.333333 21.333333-21.333333h469.333334c12.8 0 21.333333 8.533333 21.333333 21.333333v469.333334c0 12.8-8.533333 21.333333-21.333333 21.333333h-469.333334zM213.333333 512h593.066667v-42.666667H213.333333zM426.666667 682.666667v-593.066667H384V682.666667z"  horiz-adv-x="1024" />

    
    <glyph glyph-name="_gsdayudengyu" unicode="&#59052;" d="M405.333333 277.333333h213.333334c12.8 0 21.333333-8.533333 21.333333-21.333333s-8.533333-21.333333-21.333333-21.333333h-213.333334c-12.8 0-21.333333 8.533333-21.333333 21.333333 0 8.533333 8.533333 21.333333 21.333333 21.333333zM396.8 341.333333l166.4 68.266667L396.8 469.333333c-8.533333 4.266667-17.066667 17.066667-12.8 29.866667 4.266667 8.533333 17.066667 17.066667 29.866667 12.8l209.066666-76.8c12.8-4.266667 21.333333-21.333333 17.066667-34.133333-4.266667-8.533333-8.533333-12.8-12.8-12.8l-209.066667-85.333334c-12.8-4.266667-25.6 0-29.866666 12.8-4.266667 8.533333 0 21.333333 8.533333 25.6zM277.333333 682.666667h469.333334c34.133333 0 64-29.866667 64-64v-469.333334c0-34.133333-29.866667-64-64-64h-469.333334c-34.133333 0-64 29.866667-64 64v469.333334C213.333333 652.8 243.2 682.666667 277.333333 682.666667z m0-42.666667c-12.8 0-21.333333-8.533333-21.333333-21.333333v-469.333334c0-12.8 8.533333-21.333333 21.333333-21.333333h469.333334c12.8 0 21.333333 8.533333 21.333333 21.333333v469.333334c0 12.8-8.533333 21.333333-21.333333 21.333333h-469.333334z"  horiz-adv-x="1024" />

    
    <glyph glyph-name="_gsxiaoyu" unicode="&#59053;" d="M627.2 294.4c12.8-4.266667 17.066667-17.066667 8.533333-29.866667-4.266667-8.533333-17.066667-12.8-29.866666-8.533333l-209.066667 102.4-12.8 12.8c-8.533333 12.8 0 29.866667 12.8 34.133333l209.066667 102.4c12.8 4.266667 25.6 0 29.866666-8.533333s0-21.333333-8.533333-29.866667l-179.2-85.333333 179.2-89.6zM277.333333 682.666667h469.333334c34.133333 0 64-29.866667 64-64v-469.333334c0-34.133333-29.866667-64-64-64h-469.333334c-34.133333 0-64 29.866667-64 64v469.333334C213.333333 652.8 243.2 682.666667 277.333333 682.666667z m0-42.666667c-12.8 0-21.333333-8.533333-21.333333-21.333333v-469.333334c0-12.8 8.533333-21.333333 21.333333-21.333333h469.333334c12.8 0 21.333333 8.533333 21.333333 21.333333v469.333334c0 12.8-8.533333 21.333333-21.333333 21.333333h-469.333334z"  horiz-adv-x="1024" />

    
    <glyph glyph-name="_gsdayu" unicode="&#59054;" d="M396.8 294.4c-12.8-4.266667-17.066667-17.066667-8.533333-29.866667 4.266667-8.533333 17.066667-12.8 29.866666-8.533333l209.066667 102.4 12.8 12.8c8.533333 12.8 0 29.866667-12.8 34.133333l-213.333333 102.4c-8.533333 8.533333-21.333333 4.266667-25.6-8.533333s0-21.333333 8.533333-29.866667l179.2-89.6-179.2-85.333333zM277.333333 682.666667h469.333334c34.133333 0 64-29.866667 64-64v-469.333334c0-34.133333-29.866667-64-64-64h-469.333334c-34.133333 0-64 29.866667-64 64v469.333334C213.333333 652.8 243.2 682.666667 277.333333 682.666667z m0-42.666667c-12.8 0-21.333333-8.533333-21.333333-21.333333v-469.333334c0-12.8 8.533333-21.333333 21.333333-21.333333h469.333334c12.8 0 21.333333 8.533333 21.333333 21.333333v469.333334c0 12.8-8.533333 21.333333-21.333333 21.333333h-469.333334z"  horiz-adv-x="1024" />

    
    <glyph glyph-name="_gsdengyu" unicode="&#59055;" d="M362.666667 341.333333h298.666666c12.8 0 21.333333-8.533333 21.333334-21.333333s-8.533333-21.333333-21.333334-21.333333h-298.666666c-12.8 0-21.333333 8.533333-21.333334 21.333333s8.533333 21.333333 21.333334 21.333333z m0 128h298.666666c12.8 0 21.333333-8.533333 21.333334-21.333333s-8.533333-21.333333-21.333334-21.333333h-298.666666c-12.8 0-21.333333 8.533333-21.333334 21.333333s8.533333 21.333333 21.333334 21.333333zM277.333333 682.666667h469.333334c34.133333 0 64-29.866667 64-64v-469.333334c0-34.133333-29.866667-64-64-64h-469.333334c-34.133333 0-64 29.866667-64 64v469.333334C213.333333 652.8 243.2 682.666667 277.333333 682.666667z m0-42.666667c-12.8 0-21.333333-8.533333-21.333333-21.333333v-469.333334c0-12.8 8.533333-21.333333 21.333333-21.333333h469.333334c12.8 0 21.333333 8.533333 21.333333 21.333333v469.333334c0 12.8-8.533333 21.333333-21.333333 21.333333h-469.333334z"  horiz-adv-x="1024" />

    
    <glyph glyph-name="_gsjia" unicode="&#59056;" d="M277.333333 682.666667h469.333334c34.133333 0 64-29.866667 64-64v-469.333334c0-34.133333-29.866667-64-64-64h-469.333334c-34.133333 0-64 29.866667-64 64v469.333334C213.333333 652.8 243.2 682.666667 277.333333 682.666667z m0-42.666667c-12.8 0-21.333333-8.533333-21.333333-21.333333v-469.333334c0-12.8 8.533333-21.333333 21.333333-21.333333h469.333334c12.8 0 21.333333 8.533333 21.333333 21.333333v469.333334c0 12.8-8.533333 21.333333-21.333333 21.333333h-469.333334zM490.666667 405.333333V537.6c0 8.533333 8.533333 17.066667 21.333333 17.066667s21.333333-8.533333 21.333333-17.066667v-132.266667h132.266667c8.533333 0 17.066667-8.533333 17.066667-21.333333s-8.533333-21.333333-17.066667-21.333333h-132.266667v-132.266667c0-8.533333-8.533333-17.066667-21.333333-17.066667s-21.333333 8.533333-21.333333 17.066667v132.266667H358.4c-8.533333 0-17.066667 8.533333-17.066667 21.333333s8.533333 21.333333 17.066667 21.333333h132.266667z"  horiz-adv-x="1024" />

    
    <glyph glyph-name="_gsxiaoyudengyu" unicode="&#59057;" d="M618.666667 277.333333h-213.333334c-12.8 0-21.333333-12.8-21.333333-21.333333 0-12.8 8.533333-21.333333 21.333333-21.333333h213.333334c12.8 0 21.333333 8.533333 21.333333 21.333333 0 8.533333-8.533333 21.333333-21.333333 21.333333z m8.533333 64l-166.4 68.266667 166.4 64c12.8 4.266667 17.066667 17.066667 12.8 25.6-4.266667 12.8-17.066667 17.066667-29.866667 12.8l-209.066666-76.8c-12.8-8.533333-21.333333-21.333333-17.066667-34.133333 4.266667-8.533333 8.533333-12.8 12.8-12.8l209.066667-85.333334c12.8-4.266667 25.6 0 29.866666 12.8 4.266667 8.533333 0 21.333333-8.533333 25.6zM277.333333 682.666667h469.333334c34.133333 0 64-29.866667 64-64v-469.333334c0-34.133333-29.866667-64-64-64h-469.333334c-34.133333 0-64 29.866667-64 64v469.333334C213.333333 652.8 243.2 682.666667 277.333333 682.666667z m0-42.666667c-12.8 0-21.333333-8.533333-21.333333-21.333333v-469.333334c0-12.8 8.533333-21.333333 21.333333-21.333333h469.333334c12.8 0 21.333333 8.533333 21.333333 21.333333v469.333334c0 12.8-8.533333 21.333333-21.333333 21.333333h-469.333334z"  horiz-adv-x="1024" />

    
    <glyph glyph-name="_gschu" unicode="&#59058;" d="M277.333333 682.666667h469.333334c34.133333 0 64-29.866667 64-64v-469.333334c0-34.133333-29.866667-64-64-64h-469.333334c-34.133333 0-64 29.866667-64 64v469.333334C213.333333 652.8 243.2 682.666667 277.333333 682.666667z m0-42.666667c-12.8 0-21.333333-8.533333-21.333333-21.333333v-469.333334c0-12.8 8.533333-21.333333 21.333333-21.333333h469.333334c12.8 0 21.333333 8.533333 21.333333 21.333333v469.333334c0 12.8-8.533333 21.333333-21.333333 21.333333h-469.333334zM358.4 362.666667c-8.533333 0-17.066667 8.533333-17.066667 21.333333s8.533333 21.333333 17.066667 21.333333h302.933333c8.533333 0 17.066667-8.533333 17.066667-21.333333s-8.533333-21.333333-17.066667-21.333333H358.4z m153.6 85.333333c-12.8 0-21.333333 8.533333-21.333333 21.333333s8.533333 21.333333 21.333333 21.333334 21.333333-8.533333 21.333333-21.333334-8.533333-21.333333-21.333333-21.333333z m0-170.666667c-12.8 0-21.333333 8.533333-21.333333 21.333334s8.533333 21.333333 21.333333 21.333333 21.333333-8.533333 21.333333-21.333333-8.533333-21.333333-21.333333-21.333334z"  horiz-adv-x="1024" />

    
    <glyph glyph-name="_gscheng" unicode="&#59059;" d="M277.333333 682.666667h469.333334c34.133333 0 64-29.866667 64-64v-469.333334c0-34.133333-29.866667-64-64-64h-469.333334c-34.133333 0-64 29.866667-64 64v469.333334C213.333333 652.8 243.2 682.666667 277.333333 682.666667z m0-42.666667c-12.8 0-21.333333-8.533333-21.333333-21.333333v-469.333334c0-12.8 8.533333-21.333333 21.333333-21.333333h469.333334c12.8 0 21.333333 8.533333 21.333333 21.333333v469.333334c0 12.8-8.533333 21.333333-21.333333 21.333333h-469.333334zM512 413.866667l93.866667 93.866666c8.533333 8.533333 21.333333 8.533333 29.866666 0s8.533333-21.333333 0-29.866666L541.866667 384l93.866666-93.866667c8.533333-8.533333 8.533333-21.333333 0-29.866666s-21.333333-8.533333-29.866666 0L512 354.133333l-93.866667-93.866666c-8.533333-8.533333-21.333333-8.533333-29.866666 0s-8.533333 21.333333 0 29.866666l93.866666 93.866667-93.866666 93.866667c-4.266667 4.266667-4.266667 17.066667 4.266666 25.6s21.333333 8.533333 29.866667 0l89.6-89.6z"  horiz-adv-x="1024" />

    
    <glyph glyph-name="_gsjian" unicode="&#59060;" d="M277.333333 682.666667h469.333334c34.133333 0 64-29.866667 64-64v-469.333334c0-34.133333-29.866667-64-64-64h-469.333334c-34.133333 0-64 29.866667-64 64v469.333334C213.333333 652.8 243.2 682.666667 277.333333 682.666667z m0-42.666667c-12.8 0-21.333333-8.533333-21.333333-21.333333v-469.333334c0-12.8 8.533333-21.333333 21.333333-21.333333h469.333334c12.8 0 21.333333 8.533333 21.333333 21.333333v469.333334c0 12.8-8.533333 21.333333-21.333333 21.333333h-469.333334zM358.4 362.666667c-8.533333 0-17.066667 8.533333-17.066667 21.333333s8.533333 21.333333 17.066667 21.333333h302.933333c8.533333 0 17.066667-8.533333 17.066667-21.333333s-8.533333-21.333333-17.066667-21.333333H358.4z"  horiz-adv-x="1024" />

    
    </font>
</defs>
</svg>
